<svg width="613" height="201" viewBox="0 0 613 201" fill="none" xmlns="http://www.w3.org/2000/svg">
<g opacity="0.25">
<path d="M608.5 59.845C608.5 63.7925 606.48 67.7048 602.507 71.5463C598.533 75.3884 592.645 79.1184 585.016 82.6864C569.762 89.8212 547.657 96.2595 520.303 101.671C465.602 112.493 390.011 119.19 306.5 119.19C222.989 119.19 147.398 112.493 92.6972 101.671C65.3425 96.2595 43.2378 89.8212 27.9838 82.6864C20.3554 79.1184 14.4673 75.3884 10.4933 71.5463C6.51982 67.7048 4.5 63.7925 4.5 59.845C4.5 55.8974 6.51982 51.9851 10.4933 48.1436C14.4673 44.3015 20.3554 40.5715 27.9838 37.0035C43.2378 29.8687 65.3425 23.4304 92.6972 18.0187C147.398 7.1969 222.989 0.5 306.5 0.5C390.011 0.5 465.602 7.1969 520.303 18.0187C547.657 23.4304 569.762 29.8687 585.016 37.0035C592.645 40.5715 598.533 44.3015 602.507 48.1436C606.48 51.9851 608.5 55.8974 608.5 59.845Z" stroke="white"/>
<path d="M608.5 77.7985C608.5 81.746 606.48 85.6583 602.507 89.4998C598.533 93.3419 592.645 97.0719 585.016 100.64C569.762 107.775 547.657 114.213 520.303 119.625C465.602 130.447 390.011 137.143 306.5 137.143C222.989 137.143 147.398 130.447 92.6972 119.625C65.3425 114.213 43.2378 107.775 27.9838 100.64C20.3554 97.0719 14.4673 93.3419 10.4933 89.4998C6.51982 85.6583 4.5 81.746 4.5 77.7985C4.5 73.8509 6.51982 69.9386 10.4933 66.0971C14.4673 62.255 20.3554 58.525 27.9838 54.957C43.2378 47.8222 65.3425 41.3839 92.6972 35.9722C147.398 25.1504 222.989 18.4535 306.5 18.4535C390.011 18.4535 465.602 25.1504 520.303 35.9722C547.657 41.3839 569.762 47.8222 585.016 54.957C592.645 58.525 598.533 62.255 602.507 66.0971C606.48 69.9386 608.5 73.8509 608.5 77.7985Z" stroke="white"/>
<path d="M608.5 97.248C608.5 101.196 606.48 105.108 602.507 108.949C598.533 112.791 592.645 116.521 585.016 120.089C569.762 127.224 547.657 133.663 520.303 139.074C465.602 149.896 390.011 156.593 306.5 156.593C222.989 156.593 147.398 149.896 92.6972 139.074C65.3425 133.663 43.2378 127.224 27.9838 120.089C20.3554 116.521 14.4673 112.791 10.4933 108.949C6.51982 105.108 4.5 101.196 4.5 97.248C4.5 93.3005 6.51982 89.3882 10.4933 85.5467C14.4673 81.7046 20.3554 77.9746 27.9838 74.4066C43.2378 67.2718 65.3425 60.8335 92.6972 55.4218C147.398 44.6 222.989 37.9031 306.5 37.9031C390.011 37.9031 465.602 44.6 520.303 55.4218C547.657 60.8335 569.762 67.2718 585.016 74.4066C592.645 77.9746 598.533 81.7046 602.507 85.5467C606.48 89.3882 608.5 93.3005 608.5 97.248Z" stroke="white"/>
<path d="M608.5 115.202C608.5 119.149 606.48 123.061 602.507 126.903C598.533 130.745 592.645 134.475 585.016 138.043C569.762 145.178 547.657 151.616 520.303 157.028C465.602 167.85 390.011 174.546 306.5 174.546C222.989 174.546 147.398 167.85 92.6972 157.028C65.3425 151.616 43.2378 145.178 27.9838 138.043C20.3554 134.475 14.4673 130.745 10.4933 126.903C6.51982 123.061 4.5 119.149 4.5 115.202C4.5 111.254 6.51982 107.342 10.4933 103.5C14.4673 99.6581 20.3554 95.9281 27.9838 92.3601C43.2378 85.2253 65.3425 78.7869 92.6972 73.3752C147.398 62.5535 222.989 55.8566 306.5 55.8566C390.011 55.8566 465.602 62.5535 520.303 73.3752C547.657 78.7869 569.762 85.2253 585.016 92.3601C592.645 95.9281 598.533 99.6581 602.507 103.5C606.48 107.342 608.5 111.254 608.5 115.202Z" stroke="white"/>
<g filter="url(#filter0_d_14_12)">
<path d="M608.5 133.155C608.5 137.103 606.48 141.015 602.507 144.856C598.533 148.698 592.645 152.428 585.016 155.996C569.762 163.131 547.657 169.57 520.303 174.981C465.602 185.803 390.011 192.5 306.5 192.5C222.989 192.5 147.398 185.803 92.6972 174.981C65.3425 169.57 43.2378 163.131 27.9838 155.996C20.3554 152.428 14.4673 148.698 10.4933 144.856C6.51982 141.015 4.5 137.103 4.5 133.155C4.5 129.207 6.51982 125.295 10.4933 121.454C14.4673 117.612 20.3554 113.882 27.9838 110.314C43.2378 103.179 65.3425 96.7404 92.6972 91.3287C147.398 80.507 222.989 73.8101 306.5 73.8101C390.011 73.8101 465.602 80.507 520.303 91.3287C547.657 96.7404 569.762 103.179 585.016 110.314C592.645 113.882 598.533 117.612 602.507 121.454C606.48 125.295 608.5 129.207 608.5 133.155Z" stroke="white" shape-rendering="crispEdges"/>
</g>
</g>
<rect x="56" y="132" width="489" height="12" fill="#4EE1A0"/>
<path d="M83.552 48.896C90.976 48.896 97.344 50.24 102.656 52.928C107.968 55.616 112.032 59.488 114.848 64.544C117.664 69.6 119.072 75.616 119.072 82.592C119.072 89.504 117.664 95.488 114.848 100.544C112.032 105.536 107.968 109.376 102.656 112.064C97.344 114.688 90.976 116 83.552 116H63.68V48.896H83.552ZM83.552 110.432C92.896 110.432 100 108 104.864 103.136C109.792 98.208 112.256 91.36 112.256 82.592C112.256 73.76 109.792 66.88 104.864 61.952C100 56.96 92.896 54.464 83.552 54.464H70.4V110.432H83.552ZM178.885 87.104C178.885 89.408 178.821 91.168 178.693 92.384H135.205C135.397 96.352 136.357 99.744 138.085 102.56C139.813 105.376 142.085 107.52 144.901 108.992C147.717 110.4 150.789 111.104 154.117 111.104C158.469 111.104 162.117 110.048 165.061 107.936C168.069 105.824 170.053 102.976 171.013 99.392H178.117C176.837 104.512 174.085 108.704 169.861 111.968C165.701 115.168 160.453 116.768 154.117 116.768C149.189 116.768 144.773 115.68 140.869 113.504C136.965 111.264 133.893 108.128 131.653 104.096C129.477 100 128.389 95.232 128.389 89.792C128.389 84.352 129.477 79.584 131.653 75.488C133.829 71.392 136.869 68.256 140.773 66.08C144.677 63.904 149.125 62.816 154.117 62.816C159.109 62.816 163.461 63.904 167.173 66.08C170.949 68.256 173.829 71.2 175.813 74.912C177.861 78.56 178.885 82.624 178.885 87.104ZM172.069 86.912C172.133 83.008 171.333 79.68 169.669 76.928C168.069 74.176 165.861 72.096 163.045 70.688C160.229 69.28 157.157 68.576 153.829 68.576C148.837 68.576 144.581 70.176 141.061 73.376C137.541 76.576 135.589 81.088 135.205 86.912H172.069ZM209.804 109.472L227.468 63.584H234.572L213.548 116H205.964L184.94 63.584H192.14L209.804 109.472ZM326.053 116H309.637L282.181 74.432V116H265.765V48.608H282.181L309.637 90.368V48.608H326.053V116ZM362.336 116.768C357.088 116.768 352.352 115.648 348.128 113.408C343.968 111.168 340.672 107.968 338.24 103.808C335.872 99.648 334.688 94.784 334.688 89.216C334.688 83.712 335.904 78.88 338.336 74.72C340.768 70.496 344.096 67.264 348.32 65.024C352.544 62.784 357.28 61.664 362.528 61.664C367.776 61.664 372.512 62.784 376.736 65.024C380.96 67.264 384.288 70.496 386.72 74.72C389.152 78.88 390.368 83.712 390.368 89.216C390.368 94.72 389.12 99.584 386.624 103.808C384.192 107.968 380.832 111.168 376.544 113.408C372.32 115.648 367.584 116.768 362.336 116.768ZM362.336 102.56C365.472 102.56 368.128 101.408 370.304 99.104C372.544 96.8 373.664 93.504 373.664 89.216C373.664 84.928 372.576 81.632 370.4 79.328C368.288 77.024 365.664 75.872 362.528 75.872C359.328 75.872 356.672 77.024 354.56 79.328C352.448 81.568 351.392 84.864 351.392 89.216C351.392 93.504 352.416 96.8 354.464 99.104C356.576 101.408 359.2 102.56 362.336 102.56ZM428.933 102.08V116H420.581C414.629 116 409.989 114.56 406.661 111.68C403.333 108.736 401.669 103.968 401.669 97.376V76.064H395.141V62.432H401.669V49.376H418.085V62.432H428.837V76.064H418.085V97.568C418.085 99.168 418.469 100.32 419.237 101.024C420.005 101.728 421.285 102.08 423.077 102.08H428.933ZM488.573 88.352C488.573 89.888 488.477 91.488 488.285 93.152H451.133C451.389 96.48 452.445 99.04 454.301 100.832C456.221 102.56 458.557 103.424 461.309 103.424C465.405 103.424 468.253 101.696 469.853 98.24H487.325C486.429 101.76 484.797 104.928 482.429 107.744C480.125 110.56 477.213 112.768 473.693 114.368C470.173 115.968 466.237 116.768 461.885 116.768C456.637 116.768 451.965 115.648 447.869 113.408C443.773 111.168 440.573 107.968 438.269 103.808C435.965 99.648 434.813 94.784 434.813 89.216C434.813 83.648 435.933 78.784 438.173 74.624C440.477 70.464 443.677 67.264 447.773 65.024C451.869 62.784 456.573 61.664 461.885 61.664C467.069 61.664 471.677 62.752 475.709 64.928C479.741 67.104 482.877 70.208 485.117 74.24C487.421 78.272 488.573 82.976 488.573 88.352ZM471.773 84.032C471.773 81.216 470.813 78.976 468.893 77.312C466.973 75.648 464.573 74.816 461.693 74.816C458.941 74.816 456.605 75.616 454.685 77.216C452.829 78.816 451.677 81.088 451.229 84.032H471.773ZM519.025 116.768C514.353 116.768 510.193 115.968 506.545 114.368C502.897 112.768 500.017 110.592 497.905 107.84C495.793 105.024 494.609 101.888 494.353 98.432H510.577C510.769 100.288 511.633 101.792 513.169 102.944C514.705 104.096 516.593 104.672 518.833 104.672C520.881 104.672 522.449 104.288 523.537 103.52C524.689 102.688 525.265 101.632 525.265 100.352C525.265 98.816 524.465 97.696 522.865 96.992C521.265 96.224 518.673 95.392 515.089 94.496C511.249 93.6 508.049 92.672 505.489 91.712C502.929 90.688 500.721 89.12 498.865 87.008C497.009 84.832 496.081 81.92 496.081 78.272C496.081 75.2 496.913 72.416 498.577 69.92C500.305 67.36 502.801 65.344 506.065 63.872C509.393 62.4 513.329 61.664 517.873 61.664C524.593 61.664 529.873 63.328 533.713 66.656C537.617 69.984 539.857 74.4 540.433 79.904H525.265C525.009 78.048 524.177 76.576 522.769 75.488C521.425 74.4 519.633 73.856 517.393 73.856C515.473 73.856 514.001 74.24 512.977 75.008C511.953 75.712 511.441 76.704 511.441 77.984C511.441 79.52 512.241 80.672 513.841 81.44C515.505 82.208 518.065 82.976 521.521 83.744C525.489 84.768 528.721 85.792 531.217 86.816C533.713 87.776 535.889 89.376 537.745 91.616C539.665 93.792 540.657 96.736 540.721 100.448C540.721 103.584 539.825 106.4 538.033 108.896C536.305 111.328 533.777 113.248 530.449 114.656C527.185 116.064 523.377 116.768 519.025 116.768Z" fill="#BEBEBE"/>
<defs>
<filter id="filter0_d_14_12" x="0" y="73.3101" width="613" height="127.69" filterUnits="userSpaceOnUse" color-interpolation-filters="sRGB">
<feFlood flood-opacity="0" result="BackgroundImageFix"/>
<feColorMatrix in="SourceAlpha" type="matrix" values="0 0 0 0 0 0 0 0 0 0 0 0 0 0 0 0 0 0 127 0" result="hardAlpha"/>
<feOffset dy="4"/>
<feGaussianBlur stdDeviation="2"/>
<feComposite in2="hardAlpha" operator="out"/>
<feColorMatrix type="matrix" values="0 0 0 0 0 0 0 0 0 0 0 0 0 0 0 0 0 0 0.25 0"/>
<feBlend mode="normal" in2="BackgroundImageFix" result="effect1_dropShadow_14_12"/>
<feBlend mode="normal" in="SourceGraphic" in2="effect1_dropShadow_14_12" result="shape"/>
</filter>
</defs>
</svg>
