<svg width="613" height="210" viewBox="0 0 613 210" fill="none" xmlns="http://www.w3.org/2000/svg">
<g opacity="0.25">
<path d="M608.5 68.845C608.5 72.7925 606.48 76.7048 602.507 80.5463C598.533 84.3884 592.645 88.1184 585.016 91.6864C569.762 98.8212 547.657 105.26 520.303 110.671C465.602 121.493 390.011 128.19 306.5 128.19C222.989 128.19 147.398 121.493 92.6972 110.671C65.3425 105.26 43.2378 98.8212 27.9838 91.6864C20.3554 88.1184 14.4673 84.3884 10.4933 80.5463C6.51982 76.7048 4.5 72.7925 4.5 68.845C4.5 64.8974 6.51982 60.9851 10.4933 57.1436C14.4673 53.3015 20.3554 49.5715 27.9838 46.0035C43.2378 38.8687 65.3425 32.4304 92.6972 27.0187C147.398 16.1969 222.989 9.5 306.5 9.5C390.011 9.5 465.602 16.1969 520.303 27.0187C547.657 32.4304 569.762 38.8687 585.016 46.0035C592.645 49.5715 598.533 53.3015 602.507 57.1436C606.48 60.9851 608.5 64.8974 608.5 68.845Z" stroke="#D9D9D9"/>
<path d="M608.5 86.7985C608.5 90.746 606.48 94.6583 602.507 98.4998C598.533 102.342 592.645 106.072 585.016 109.64C569.762 116.775 547.657 123.213 520.303 128.625C465.602 139.447 390.011 146.143 306.5 146.143C222.989 146.143 147.398 139.447 92.6972 128.625C65.3425 123.213 43.2378 116.775 27.9838 109.64C20.3554 106.072 14.4673 102.342 10.4933 98.4998C6.51982 94.6583 4.5 90.746 4.5 86.7985C4.5 82.8509 6.51982 78.9386 10.4933 75.0971C14.4673 71.255 20.3554 67.525 27.9838 63.957C43.2378 56.8222 65.3425 50.3839 92.6972 44.9722C147.398 34.1504 222.989 27.4535 306.5 27.4535C390.011 27.4535 465.602 34.1504 520.303 44.9722C547.657 50.3839 569.762 56.8222 585.016 63.957C592.645 67.525 598.533 71.255 602.507 75.0971C606.48 78.9386 608.5 82.8509 608.5 86.7985Z" stroke="#D9D9D9"/>
<path d="M608.5 106.248C608.5 110.196 606.48 114.108 602.507 117.949C598.533 121.791 592.645 125.521 585.016 129.089C569.762 136.224 547.657 142.663 520.303 148.074C465.602 158.896 390.011 165.593 306.5 165.593C222.989 165.593 147.398 158.896 92.6972 148.074C65.3425 142.663 43.2378 136.224 27.9838 129.089C20.3554 125.521 14.4673 121.791 10.4933 117.949C6.51982 114.108 4.5 110.196 4.5 106.248C4.5 102.3 6.51982 98.3882 10.4933 94.5467C14.4673 90.7046 20.3554 86.9746 27.9838 83.4066C43.2378 76.2718 65.3425 69.8335 92.6972 64.4218C147.398 53.6 222.989 46.9031 306.5 46.9031C390.011 46.9031 465.602 53.6 520.303 64.4218C547.657 69.8335 569.762 76.2718 585.016 83.4066C592.645 86.9746 598.533 90.7046 602.507 94.5467C606.48 98.3882 608.5 102.3 608.5 106.248Z" stroke="#D9D9D9"/>
<path d="M608.5 124.202C608.5 128.149 606.48 132.061 602.507 135.903C598.533 139.745 592.645 143.475 585.016 147.043C569.762 154.178 547.657 160.616 520.303 166.028C465.602 176.85 390.011 183.546 306.5 183.546C222.989 183.546 147.398 176.85 92.6972 166.028C65.3425 160.616 43.2378 154.178 27.9838 147.043C20.3554 143.475 14.4673 139.745 10.4933 135.903C6.51982 132.061 4.5 128.149 4.5 124.202C4.5 120.254 6.51982 116.342 10.4933 112.5C14.4673 108.658 20.3554 104.928 27.9838 101.36C43.2378 94.2253 65.3425 87.7869 92.6972 82.3752C147.398 71.5535 222.989 64.8566 306.5 64.8566C390.011 64.8566 465.602 71.5535 520.303 82.3752C547.657 87.7869 569.762 94.2253 585.016 101.36C592.645 104.928 598.533 108.658 602.507 112.5C606.48 116.342 608.5 120.254 608.5 124.202Z" stroke="#D9D9D9"/>
<g filter="url(#filter0_d_14_12)">
<path d="M608.5 142.155C608.5 146.103 606.48 150.015 602.507 153.856C598.533 157.698 592.645 161.428 585.016 164.996C569.762 172.131 547.657 178.57 520.303 183.981C465.602 194.803 390.011 201.5 306.5 201.5C222.989 201.5 147.398 194.803 92.6972 183.981C65.3425 178.57 43.2378 172.131 27.9838 164.996C20.3554 161.428 14.4673 157.698 10.4933 153.856C6.51982 150.015 4.5 146.103 4.5 142.155C4.5 138.207 6.51982 134.295 10.4933 130.454C14.4673 126.612 20.3554 122.882 27.9838 119.314C43.2378 112.179 65.3425 105.74 92.6972 100.329C147.398 89.507 222.989 82.8101 306.5 82.8101C390.011 82.8101 465.602 89.507 520.303 100.329C547.657 105.74 569.762 112.179 585.016 119.314C592.645 122.882 598.533 126.612 602.507 130.454C606.48 134.295 608.5 138.207 608.5 142.155Z" stroke="#D9D9D9" shape-rendering="crispEdges"/>
</g>
</g>
<rect x="68" y="122" width="489" height="12" fill="#4EE1A0"/>
<path d="M95.552 38.896C102.976 38.896 109.344 40.24 114.656 42.928C119.968 45.616 124.032 49.488 126.848 54.544C129.664 59.6 131.072 65.616 131.072 72.592C131.072 79.504 129.664 85.488 126.848 90.544C124.032 95.536 119.968 99.376 114.656 102.064C109.344 104.688 102.976 106 95.552 106H75.68V38.896H95.552ZM95.552 100.432C104.896 100.432 112 98 116.864 93.136C121.792 88.208 124.256 81.36 124.256 72.592C124.256 63.76 121.792 56.88 116.864 51.952C112 46.96 104.896 44.464 95.552 44.464H82.4V100.432H95.552ZM190.885 77.104C190.885 79.408 190.821 81.168 190.693 82.384H147.205C147.397 86.352 148.357 89.744 150.085 92.56C151.813 95.376 154.085 97.52 156.901 98.992C159.717 100.4 162.789 101.104 166.117 101.104C170.469 101.104 174.117 100.048 177.061 97.936C180.069 95.824 182.053 92.976 183.013 89.392H190.117C188.837 94.512 186.085 98.704 181.861 101.968C177.701 105.168 172.453 106.768 166.117 106.768C161.189 106.768 156.773 105.68 152.869 103.504C148.965 101.264 145.893 98.128 143.653 94.096C141.477 90 140.389 85.232 140.389 79.792C140.389 74.352 141.477 69.584 143.653 65.488C145.829 61.392 148.869 58.256 152.773 56.08C156.677 53.904 161.125 52.816 166.117 52.816C171.109 52.816 175.461 53.904 179.173 56.08C182.949 58.256 185.829 61.2 187.813 64.912C189.861 68.56 190.885 72.624 190.885 77.104ZM184.069 76.912C184.133 73.008 183.333 69.68 181.669 66.928C180.069 64.176 177.861 62.096 175.045 60.688C172.229 59.28 169.157 58.576 165.829 58.576C160.837 58.576 156.581 60.176 153.061 63.376C149.541 66.576 147.589 71.088 147.205 76.912H184.069ZM221.804 99.472L239.468 53.584H246.572L225.548 106H217.964L196.94 53.584H204.14L221.804 99.472ZM338.053 106H321.637L294.181 64.432V106H277.765V38.608H294.181L321.637 80.368V38.608H338.053V106ZM374.336 106.768C369.088 106.768 364.352 105.648 360.128 103.408C355.968 101.168 352.672 97.968 350.24 93.808C347.872 89.648 346.688 84.784 346.688 79.216C346.688 73.712 347.904 68.88 350.336 64.72C352.768 60.496 356.096 57.264 360.32 55.024C364.544 52.784 369.28 51.664 374.528 51.664C379.776 51.664 384.512 52.784 388.736 55.024C392.96 57.264 396.288 60.496 398.72 64.72C401.152 68.88 402.368 73.712 402.368 79.216C402.368 84.72 401.12 89.584 398.624 93.808C396.192 97.968 392.832 101.168 388.544 103.408C384.32 105.648 379.584 106.768 374.336 106.768ZM374.336 92.56C377.472 92.56 380.128 91.408 382.304 89.104C384.544 86.8 385.664 83.504 385.664 79.216C385.664 74.928 384.576 71.632 382.4 69.328C380.288 67.024 377.664 65.872 374.528 65.872C371.328 65.872 368.672 67.024 366.56 69.328C364.448 71.568 363.392 74.864 363.392 79.216C363.392 83.504 364.416 86.8 366.464 89.104C368.576 91.408 371.2 92.56 374.336 92.56ZM440.933 92.08V106H432.581C426.629 106 421.989 104.56 418.661 101.68C415.333 98.736 413.669 93.968 413.669 87.376V66.064H407.141V52.432H413.669V39.376H430.085V52.432H440.837V66.064H430.085V87.568C430.085 89.168 430.469 90.32 431.237 91.024C432.005 91.728 433.285 92.08 435.077 92.08H440.933ZM500.573 78.352C500.573 79.888 500.477 81.488 500.285 83.152H463.133C463.389 86.48 464.445 89.04 466.301 90.832C468.221 92.56 470.557 93.424 473.309 93.424C477.405 93.424 480.253 91.696 481.853 88.24H499.325C498.429 91.76 496.797 94.928 494.429 97.744C492.125 100.56 489.213 102.768 485.693 104.368C482.173 105.968 478.237 106.768 473.885 106.768C468.637 106.768 463.965 105.648 459.869 103.408C455.773 101.168 452.573 97.968 450.269 93.808C447.965 89.648 446.813 84.784 446.813 79.216C446.813 73.648 447.933 68.784 450.173 64.624C452.477 60.464 455.677 57.264 459.773 55.024C463.869 52.784 468.573 51.664 473.885 51.664C479.069 51.664 483.677 52.752 487.709 54.928C491.741 57.104 494.877 60.208 497.117 64.24C499.421 68.272 500.573 72.976 500.573 78.352ZM483.773 74.032C483.773 71.216 482.813 68.976 480.893 67.312C478.973 65.648 476.573 64.816 473.693 64.816C470.941 64.816 468.605 65.616 466.685 67.216C464.829 68.816 463.677 71.088 463.229 74.032H483.773ZM531.025 106.768C526.353 106.768 522.193 105.968 518.545 104.368C514.897 102.768 512.017 100.592 509.905 97.84C507.793 95.024 506.609 91.888 506.353 88.432H522.577C522.769 90.288 523.633 91.792 525.169 92.944C526.705 94.096 528.593 94.672 530.833 94.672C532.881 94.672 534.449 94.288 535.537 93.52C536.689 92.688 537.265 91.632 537.265 90.352C537.265 88.816 536.465 87.696 534.865 86.992C533.265 86.224 530.673 85.392 527.089 84.496C523.249 83.6 520.049 82.672 517.489 81.712C514.929 80.688 512.721 79.12 510.865 77.008C509.009 74.832 508.081 71.92 508.081 68.272C508.081 65.2 508.913 62.416 510.577 59.92C512.305 57.36 514.801 55.344 518.065 53.872C521.393 52.4 525.329 51.664 529.873 51.664C536.593 51.664 541.873 53.328 545.713 56.656C549.617 59.984 551.857 64.4 552.433 69.904H537.265C537.009 68.048 536.177 66.576 534.769 65.488C533.425 64.4 531.633 63.856 529.393 63.856C527.473 63.856 526.001 64.24 524.977 65.008C523.953 65.712 523.441 66.704 523.441 67.984C523.441 69.52 524.241 70.672 525.841 71.44C527.505 72.208 530.065 72.976 533.521 73.744C537.489 74.768 540.721 75.792 543.217 76.816C545.713 77.776 547.889 79.376 549.745 81.616C551.665 83.792 552.657 86.736 552.721 90.448C552.721 93.584 551.825 96.4 550.033 98.896C548.305 101.328 545.777 103.248 542.449 104.656C539.185 106.064 535.377 106.768 531.025 106.768Z" fill="#BEBEBE"/>
<path d="M90.058 153.985H86.093L85.014 156H83.766L88.628 146.991H89.993L91.67 156H90.422L90.058 153.985ZM89.889 153.062L89.057 148.434L86.587 153.062H89.889ZM97.1518 152.425C97.2818 151.688 97.5418 151.047 97.9318 150.501C98.3305 149.946 98.8202 149.517 99.4008 149.214C99.9815 148.911 100.61 148.759 101.286 148.759C102.161 148.759 102.842 148.971 103.327 149.396C103.821 149.821 104.094 150.41 104.146 151.164H102.872C102.829 150.731 102.651 150.388 102.339 150.137C102.036 149.886 101.624 149.76 101.104 149.76C100.428 149.76 99.8385 149.994 99.3358 150.462C98.8418 150.921 98.5212 151.576 98.3738 152.425C98.3305 152.711 98.3088 152.949 98.3088 153.14C98.3088 153.773 98.4778 154.262 98.8158 154.609C99.1538 154.947 99.6045 155.116 100.168 155.116C100.688 155.116 101.139 154.995 101.52 154.752C101.91 154.509 102.209 154.163 102.417 153.712H103.691C103.379 154.44 102.898 155.025 102.248 155.467C101.598 155.9 100.844 156.117 99.9858 156.117C99.0932 156.117 98.3825 155.861 97.8538 155.35C97.3338 154.839 97.0738 154.141 97.0738 153.257C97.0738 152.988 97.0998 152.711 97.1518 152.425ZM107.999 156.117C107.401 156.117 106.873 155.996 106.413 155.753C105.963 155.502 105.612 155.155 105.36 154.713C105.109 154.262 104.983 153.742 104.983 153.153C104.983 152.347 105.17 151.61 105.542 150.943C105.915 150.267 106.426 149.734 107.076 149.344C107.735 148.954 108.467 148.759 109.273 148.759C109.871 148.759 110.4 148.885 110.859 149.136C111.327 149.379 111.687 149.725 111.938 150.176C112.198 150.618 112.328 151.138 112.328 151.736C112.328 152.542 112.138 153.279 111.756 153.946C111.375 154.613 110.855 155.142 110.196 155.532C109.538 155.922 108.805 156.117 107.999 156.117ZM108.142 155.116C108.706 155.116 109.213 154.964 109.663 154.661C110.114 154.349 110.465 153.942 110.716 153.439C110.976 152.928 111.106 152.382 111.106 151.801C111.106 151.142 110.916 150.64 110.534 150.293C110.153 149.938 109.676 149.76 109.104 149.76C108.541 149.76 108.038 149.916 107.596 150.228C107.154 150.531 106.812 150.939 106.569 151.45C106.327 151.961 106.205 152.512 106.205 153.101C106.205 153.742 106.387 154.241 106.751 154.596C107.115 154.943 107.579 155.116 108.142 155.116ZM116.068 146.38L114.365 156H113.182L114.885 146.38H116.068ZM119.267 146.38L117.564 156H116.381L118.084 146.38H119.267ZM123.935 148.759C124.533 148.759 125.049 148.876 125.482 149.11C125.924 149.335 126.258 149.656 126.483 150.072C126.717 150.479 126.834 150.947 126.834 151.476C126.834 151.658 126.813 151.879 126.769 152.139C126.735 152.364 126.678 152.598 126.6 152.841H120.906C120.889 153.014 120.88 153.14 120.88 153.218C120.88 153.816 121.058 154.284 121.413 154.622C121.777 154.951 122.25 155.116 122.83 155.116C123.342 155.116 123.788 154.999 124.169 154.765C124.559 154.522 124.854 154.202 125.053 153.803H126.327C126.015 154.488 125.534 155.047 124.884 155.48C124.243 155.905 123.498 156.117 122.648 156.117C121.756 156.117 121.036 155.861 120.49 155.35C119.953 154.83 119.684 154.124 119.684 153.231C119.684 152.98 119.71 152.711 119.762 152.425C119.892 151.688 120.157 151.043 120.555 150.488C120.954 149.933 121.444 149.509 122.024 149.214C122.614 148.911 123.251 148.759 123.935 148.759ZM125.573 151.983C125.599 151.81 125.612 151.649 125.612 151.502C125.612 150.947 125.435 150.518 125.079 150.215C124.733 149.912 124.278 149.76 123.714 149.76C123.108 149.76 122.557 149.959 122.063 150.358C121.569 150.748 121.236 151.29 121.062 151.983H125.573ZM127.824 152.425C127.954 151.688 128.214 151.047 128.604 150.501C129.002 149.946 129.492 149.517 130.073 149.214C130.653 148.911 131.282 148.759 131.958 148.759C132.833 148.759 133.513 148.971 133.999 149.396C134.493 149.821 134.766 150.41 134.818 151.164H133.544C133.5 150.731 133.323 150.388 133.011 150.137C132.707 149.886 132.296 149.76 131.776 149.76C131.1 149.76 130.51 149.994 130.008 150.462C129.514 150.921 129.193 151.576 129.046 152.425C129.002 152.711 128.981 152.949 128.981 153.14C128.981 153.773 129.15 154.262 129.488 154.609C129.826 154.947 130.276 155.116 130.84 155.116C131.36 155.116 131.81 154.995 132.192 154.752C132.582 154.509 132.881 154.163 133.089 153.712H134.363C134.051 154.44 133.57 155.025 132.92 155.467C132.27 155.9 131.516 156.117 130.658 156.117C129.765 156.117 129.054 155.861 128.526 155.35C128.006 154.839 127.746 154.141 127.746 153.257C127.746 152.988 127.772 152.711 127.824 152.425ZM137.332 154.05C137.306 154.18 137.293 154.293 137.293 154.388C137.293 154.605 137.358 154.761 137.488 154.856C137.627 154.951 137.848 154.999 138.151 154.999H139.022L138.84 156H137.774C137.211 156 136.786 155.892 136.5 155.675C136.223 155.458 136.084 155.103 136.084 154.609C136.084 154.418 136.102 154.232 136.136 154.05L136.877 149.851H135.967L136.136 148.876H137.059L137.371 147.082H138.567L138.255 148.876H140.101L139.932 149.851H138.073L137.332 154.05ZM142.341 147.719C142.15 147.719 141.99 147.658 141.86 147.537C141.738 147.407 141.678 147.247 141.678 147.056C141.678 146.796 141.773 146.575 141.964 146.393C142.154 146.202 142.375 146.107 142.627 146.107C142.826 146.107 142.986 146.168 143.108 146.289C143.229 146.41 143.29 146.571 143.29 146.77C143.29 147.03 143.194 147.255 143.004 147.446C142.813 147.628 142.592 147.719 142.341 147.719ZM142.718 148.876L141.457 156H140.274L141.535 148.876H142.718ZM146.606 156.117C146.008 156.117 145.479 155.996 145.02 155.753C144.569 155.502 144.218 155.155 143.967 154.713C143.715 154.262 143.59 153.742 143.59 153.153C143.59 152.347 143.776 151.61 144.149 150.943C144.521 150.267 145.033 149.734 145.683 149.344C146.341 148.954 147.074 148.759 147.88 148.759C148.478 148.759 149.006 148.885 149.466 149.136C149.934 149.379 150.293 149.725 150.545 150.176C150.805 150.618 150.935 151.138 150.935 151.736C150.935 152.542 150.744 153.279 150.363 153.946C149.981 154.613 149.461 155.142 148.803 155.532C148.144 155.922 147.412 156.117 146.606 156.117ZM146.749 155.116C147.312 155.116 147.819 154.964 148.27 154.661C148.72 154.349 149.071 153.942 149.323 153.439C149.583 152.928 149.713 152.382 149.713 151.801C149.713 151.142 149.522 150.64 149.141 150.293C148.759 149.938 148.283 149.76 147.711 149.76C147.147 149.76 146.645 149.916 146.203 150.228C145.761 150.531 145.418 150.939 145.176 151.45C144.933 151.961 144.812 152.512 144.812 153.101C144.812 153.742 144.994 154.241 145.358 154.596C145.722 154.943 146.185 155.116 146.749 155.116ZM156.546 148.746C157.283 148.746 157.872 148.945 158.314 149.344C158.756 149.734 158.977 150.306 158.977 151.06C158.977 151.337 158.956 151.584 158.912 151.801L158.171 156H157.001L157.716 151.97C157.751 151.788 157.768 151.597 157.768 151.398C157.768 150.869 157.621 150.466 157.326 150.189C157.04 149.912 156.637 149.773 156.117 149.773C155.493 149.773 154.96 149.968 154.518 150.358C154.085 150.748 153.803 151.316 153.673 152.061V152.035L152.971 156H151.788L153.049 148.876H154.232L154.05 149.903C154.345 149.53 154.713 149.244 155.155 149.045C155.597 148.846 156.061 148.746 156.546 148.746ZM167.109 156.117C166.511 156.117 165.982 155.996 165.523 155.753C165.072 155.502 164.721 155.155 164.47 154.713C164.218 154.262 164.093 153.742 164.093 153.153C164.093 152.347 164.279 151.61 164.652 150.943C165.024 150.267 165.536 149.734 166.186 149.344C166.844 148.954 167.577 148.759 168.383 148.759C168.981 148.759 169.509 148.885 169.969 149.136C170.437 149.379 170.796 149.725 171.048 150.176C171.308 150.618 171.438 151.138 171.438 151.736C171.438 152.542 171.247 153.279 170.866 153.946C170.484 154.613 169.964 155.142 169.306 155.532C168.647 155.922 167.915 156.117 167.109 156.117ZM167.252 155.116C167.815 155.116 168.322 154.964 168.773 154.661C169.223 154.349 169.574 153.942 169.826 153.439C170.086 152.928 170.216 152.382 170.216 151.801C170.216 151.142 170.025 150.64 169.644 150.293C169.262 149.938 168.786 149.76 168.214 149.76C167.65 149.76 167.148 149.916 166.706 150.228C166.264 150.531 165.921 150.939 165.679 151.45C165.436 151.961 165.315 152.512 165.315 153.101C165.315 153.742 165.497 154.241 165.861 154.596C166.225 154.943 166.688 155.116 167.252 155.116ZM176.698 147.056C176.169 147.056 175.779 147.16 175.528 147.368C175.285 147.567 175.125 147.901 175.047 148.369L174.956 148.876H176.451L176.282 149.851H174.787L173.695 156H172.512L173.591 149.851H172.681L172.85 148.876H173.76L173.851 148.369C173.998 147.572 174.31 146.991 174.787 146.627C175.264 146.254 175.957 146.068 176.867 146.068L176.698 147.056ZM191.193 148.876L187.709 156H186.487L185.785 150.332L183.055 156H181.833L180.858 148.876H182.067L182.652 154.856L185.46 148.876H186.682L187.358 154.817L190.023 148.876H191.193ZM193.316 150.228C193.602 149.76 193.961 149.396 194.395 149.136C194.828 148.876 195.322 148.746 195.877 148.746L195.656 149.968H195.344C194.728 149.968 194.213 150.133 193.797 150.462C193.389 150.791 193.116 151.346 192.978 152.126L192.289 156H191.106L192.367 148.876H193.55L193.316 150.228ZM198.022 147.719C197.832 147.719 197.671 147.658 197.541 147.537C197.42 147.407 197.359 147.247 197.359 147.056C197.359 146.796 197.455 146.575 197.645 146.393C197.836 146.202 198.057 146.107 198.308 146.107C198.508 146.107 198.668 146.168 198.789 146.289C198.911 146.41 198.971 146.571 198.971 146.77C198.971 147.03 198.876 147.255 198.685 147.446C198.495 147.628 198.274 147.719 198.022 147.719ZM198.399 148.876L197.138 156H195.955L197.216 148.876H198.399ZM200.948 154.05C200.922 154.18 200.909 154.293 200.909 154.388C200.909 154.605 200.974 154.761 201.104 154.856C201.243 154.951 201.464 154.999 201.767 154.999H202.638L202.456 156H201.39C200.827 156 200.402 155.892 200.116 155.675C199.839 155.458 199.7 155.103 199.7 154.609C199.7 154.418 199.718 154.232 199.752 154.05L200.493 149.851H199.583L199.752 148.876H200.675L200.987 147.082H202.183L201.871 148.876H203.717L203.548 149.851H201.689L200.948 154.05ZM208.245 148.759C208.843 148.759 209.358 148.876 209.792 149.11C210.234 149.335 210.567 149.656 210.793 150.072C211.027 150.479 211.144 150.947 211.144 151.476C211.144 151.658 211.122 151.879 211.079 152.139C211.044 152.364 210.988 152.598 210.91 152.841H205.216C205.198 153.014 205.19 153.14 205.19 153.218C205.19 153.816 205.367 154.284 205.723 154.622C206.087 154.951 206.559 155.116 207.14 155.116C207.651 155.116 208.097 154.999 208.479 154.765C208.869 154.522 209.163 154.202 209.363 153.803H210.637C210.325 154.488 209.844 155.047 209.194 155.48C208.552 155.905 207.807 156.117 206.958 156.117C206.065 156.117 205.346 155.861 204.8 155.35C204.262 154.83 203.994 154.124 203.994 153.231C203.994 152.98 204.02 152.711 204.072 152.425C204.202 151.688 204.466 151.043 204.865 150.488C205.263 149.933 205.753 149.509 206.334 149.214C206.923 148.911 207.56 148.759 208.245 148.759ZM209.883 151.983C209.909 151.81 209.922 151.649 209.922 151.502C209.922 150.947 209.744 150.518 209.389 150.215C209.042 149.912 208.587 149.76 208.024 149.76C207.417 149.76 206.867 149.959 206.373 150.358C205.879 150.748 205.545 151.29 205.372 151.983H209.883ZM217.827 150.735L217.645 151.736H212.458L212.64 150.735H217.827ZM226.69 148.876L225.429 156H224.246L224.428 154.96C224.142 155.324 223.778 155.606 223.336 155.805C222.894 156.004 222.435 156.104 221.958 156.104C221.213 156.104 220.615 155.905 220.164 155.506C219.722 155.099 219.501 154.518 219.501 153.764C219.501 153.573 219.523 153.335 219.566 153.049L220.307 148.876H221.477L220.775 152.893C220.741 153.075 220.723 153.266 220.723 153.465C220.723 153.994 220.866 154.397 221.152 154.674C221.447 154.943 221.854 155.077 222.374 155.077C222.998 155.077 223.527 154.882 223.96 154.492C224.402 154.102 224.684 153.534 224.805 152.789V152.828L225.507 148.876H226.69ZM229.637 150.189C229.949 149.782 230.361 149.444 230.872 149.175C231.383 148.898 231.942 148.759 232.549 148.759C233.104 148.759 233.593 148.876 234.018 149.11C234.451 149.335 234.785 149.665 235.019 150.098C235.253 150.523 235.37 151.025 235.37 151.606C235.37 151.857 235.344 152.126 235.292 152.412C235.162 153.131 234.898 153.773 234.499 154.336C234.109 154.899 233.628 155.337 233.056 155.649C232.493 155.961 231.895 156.117 231.262 156.117C230.655 156.117 230.144 155.983 229.728 155.714C229.321 155.437 229.026 155.094 228.844 154.687L228.025 159.38H226.842L228.688 148.876H229.871L229.637 150.189ZM234.083 152.412C234.118 152.23 234.135 152.031 234.135 151.814C234.135 151.181 233.949 150.687 233.576 150.332C233.203 149.968 232.722 149.786 232.133 149.786C231.7 149.786 231.279 149.894 230.872 150.111C230.465 150.319 230.114 150.627 229.819 151.034C229.533 151.433 229.342 151.896 229.247 152.425C229.212 152.607 229.195 152.806 229.195 153.023C229.195 153.656 229.381 154.158 229.754 154.531C230.135 154.895 230.616 155.077 231.197 155.077C231.639 155.077 232.059 154.973 232.458 154.765C232.865 154.548 233.212 154.241 233.498 153.842C233.793 153.435 233.988 152.958 234.083 152.412ZM238.721 156.117C237.976 156.117 237.365 155.939 236.888 155.584C236.411 155.229 236.173 154.752 236.173 154.154C236.173 154.041 236.177 153.959 236.186 153.907H237.343C237.308 154.28 237.417 154.583 237.668 154.817C237.928 155.051 238.301 155.168 238.786 155.168C239.271 155.168 239.661 155.077 239.956 154.895C240.259 154.704 240.411 154.44 240.411 154.102C240.411 153.816 240.29 153.591 240.047 153.426C239.804 153.261 239.432 153.084 238.929 152.893C238.487 152.728 238.123 152.572 237.837 152.425C237.551 152.278 237.308 152.074 237.109 151.814C236.91 151.545 236.81 151.207 236.81 150.8C236.81 150.401 236.923 150.046 237.148 149.734C237.382 149.422 237.703 149.184 238.11 149.019C238.526 148.846 238.998 148.759 239.527 148.759C240.255 148.759 240.853 148.941 241.321 149.305C241.789 149.669 242.023 150.146 242.023 150.735C242.023 150.848 242.019 150.934 242.01 150.995H240.879L240.892 150.839C240.892 150.492 240.758 150.219 240.489 150.02C240.229 149.812 239.882 149.708 239.449 149.708C239.024 149.708 238.673 149.803 238.396 149.994C238.127 150.185 237.993 150.44 237.993 150.761C237.993 151.064 238.119 151.303 238.37 151.476C238.621 151.649 239.011 151.84 239.54 152.048C239.982 152.221 240.337 152.382 240.606 152.529C240.875 152.668 241.104 152.863 241.295 153.114C241.486 153.365 241.581 153.682 241.581 154.063C241.581 154.479 241.455 154.843 241.204 155.155C240.961 155.467 240.623 155.705 240.19 155.87C239.757 156.035 239.267 156.117 238.721 156.117ZM250.009 156.117C249.411 156.117 248.882 155.996 248.423 155.753C247.972 155.502 247.621 155.155 247.37 154.713C247.119 154.262 246.993 153.742 246.993 153.153C246.993 152.347 247.179 151.61 247.552 150.943C247.925 150.267 248.436 149.734 249.086 149.344C249.745 148.954 250.477 148.759 251.283 148.759C251.881 148.759 252.41 148.885 252.869 149.136C253.337 149.379 253.697 149.725 253.948 150.176C254.208 150.618 254.338 151.138 254.338 151.736C254.338 152.542 254.147 153.279 253.766 153.946C253.385 154.613 252.865 155.142 252.206 155.532C251.547 155.922 250.815 156.117 250.009 156.117ZM250.152 155.116C250.715 155.116 251.222 154.964 251.673 154.661C252.124 154.349 252.475 153.942 252.726 153.439C252.986 152.928 253.116 152.382 253.116 151.801C253.116 151.142 252.925 150.64 252.544 150.293C252.163 149.938 251.686 149.76 251.114 149.76C250.551 149.76 250.048 149.916 249.606 150.228C249.164 150.531 248.822 150.939 248.579 151.45C248.336 151.961 248.215 152.512 248.215 153.101C248.215 153.742 248.397 154.241 248.761 154.596C249.125 154.943 249.589 155.116 250.152 155.116ZM259.95 148.746C260.686 148.746 261.276 148.945 261.718 149.344C262.16 149.734 262.381 150.306 262.381 151.06C262.381 151.337 262.359 151.584 262.316 151.801L261.575 156H260.405L261.12 151.97C261.154 151.788 261.172 151.597 261.172 151.398C261.172 150.869 261.024 150.466 260.73 150.189C260.444 149.912 260.041 149.773 259.521 149.773C258.897 149.773 258.364 149.968 257.922 150.358C257.488 150.748 257.207 151.316 257.077 152.061V152.035L256.375 156H255.192L256.453 148.876H257.636L257.454 149.903C257.748 149.53 258.117 149.244 258.559 149.045C259.001 148.846 259.464 148.746 259.95 148.746ZM269.173 154.05C269.147 154.18 269.134 154.293 269.134 154.388C269.134 154.605 269.199 154.761 269.329 154.856C269.468 154.951 269.689 154.999 269.992 154.999H270.863L270.681 156H269.615C269.052 156 268.627 155.892 268.341 155.675C268.064 155.458 267.925 155.103 267.925 154.609C267.925 154.418 267.942 154.232 267.977 154.05L268.718 149.851H267.808L267.977 148.876H268.9L269.212 147.082H270.408L270.096 148.876H271.942L271.773 149.851H269.914L269.173 154.05ZM276.937 148.746C277.648 148.746 278.22 148.945 278.653 149.344C279.087 149.734 279.303 150.302 279.303 151.047C279.303 151.324 279.282 151.576 279.238 151.801L278.497 156H277.327L278.042 151.97C278.077 151.788 278.094 151.597 278.094 151.398C278.094 150.869 277.947 150.466 277.652 150.189C277.366 149.912 276.963 149.773 276.443 149.773C275.819 149.773 275.286 149.968 274.844 150.358C274.411 150.748 274.129 151.316 273.999 152.061V152.035L273.297 156H272.114L273.817 146.38H275L274.376 149.903C274.671 149.539 275.044 149.257 275.494 149.058C275.954 148.85 276.435 148.746 276.937 148.746ZM282.497 147.719C282.306 147.719 282.146 147.658 282.016 147.537C281.894 147.407 281.834 147.247 281.834 147.056C281.834 146.796 281.929 146.575 282.12 146.393C282.31 146.202 282.531 146.107 282.783 146.107C282.982 146.107 283.142 146.168 283.264 146.289C283.385 146.41 283.446 146.571 283.446 146.77C283.446 147.03 283.35 147.255 283.16 147.446C282.969 147.628 282.748 147.719 282.497 147.719ZM282.874 148.876L281.613 156H280.43L281.691 148.876H282.874ZM288.387 148.746C289.124 148.746 289.713 148.945 290.155 149.344C290.597 149.734 290.818 150.306 290.818 151.06C290.818 151.337 290.796 151.584 290.753 151.801L290.012 156H288.842L289.557 151.97C289.592 151.788 289.609 151.597 289.609 151.398C289.609 150.869 289.462 150.466 289.167 150.189C288.881 149.912 288.478 149.773 287.958 149.773C287.334 149.773 286.801 149.968 286.359 150.358C285.926 150.748 285.644 151.316 285.514 152.061V152.035L284.812 156H283.629L284.89 148.876H286.073L285.891 149.903C286.186 149.53 286.554 149.244 286.996 149.045C287.438 148.846 287.902 148.746 288.387 148.746ZM296.169 148.759C296.785 148.759 297.3 148.893 297.716 149.162C298.132 149.431 298.414 149.769 298.561 150.176L298.795 148.876H299.991L298.704 156.156C298.592 156.806 298.349 157.382 297.976 157.885C297.612 158.396 297.149 158.795 296.585 159.081C296.022 159.367 295.398 159.51 294.713 159.51C293.777 159.51 293.036 159.285 292.49 158.834C291.944 158.392 291.68 157.794 291.697 157.04H292.88C292.932 157.473 293.136 157.82 293.491 158.08C293.855 158.349 294.323 158.483 294.895 158.483C295.545 158.483 296.113 158.279 296.598 157.872C297.084 157.465 297.391 156.893 297.521 156.156L297.781 154.661C297.469 155.077 297.058 155.424 296.546 155.701C296.044 155.978 295.485 156.117 294.869 156.117C294.315 156.117 293.825 156 293.4 155.766C292.976 155.523 292.642 155.181 292.399 154.739C292.165 154.297 292.048 153.786 292.048 153.205C292.048 152.945 292.074 152.681 292.126 152.412C292.256 151.684 292.516 151.047 292.906 150.501C293.305 149.946 293.786 149.517 294.349 149.214C294.921 148.911 295.528 148.759 296.169 148.759ZM298.171 152.425C298.206 152.243 298.223 152.048 298.223 151.84C298.223 151.207 298.033 150.709 297.651 150.345C297.279 149.972 296.802 149.786 296.221 149.786C295.779 149.786 295.355 149.89 294.947 150.098C294.549 150.306 294.206 150.609 293.92 151.008C293.634 151.407 293.444 151.875 293.348 152.412C293.314 152.594 293.296 152.793 293.296 153.01C293.296 153.651 293.483 154.158 293.855 154.531C294.228 154.895 294.705 155.077 295.285 155.077C295.727 155.077 296.148 154.973 296.546 154.765C296.954 154.548 297.3 154.241 297.586 153.842C297.881 153.435 298.076 152.962 298.171 152.425ZM303.239 156.117C302.493 156.117 301.882 155.939 301.406 155.584C300.929 155.229 300.691 154.752 300.691 154.154C300.691 154.041 300.695 153.959 300.704 153.907H301.861C301.826 154.28 301.934 154.583 302.186 154.817C302.446 155.051 302.818 155.168 303.304 155.168C303.789 155.168 304.179 155.077 304.474 154.895C304.777 154.704 304.929 154.44 304.929 154.102C304.929 153.816 304.807 153.591 304.565 153.426C304.322 153.261 303.949 153.084 303.447 152.893C303.005 152.728 302.641 152.572 302.355 152.425C302.069 152.278 301.826 152.074 301.627 151.814C301.427 151.545 301.328 151.207 301.328 150.8C301.328 150.401 301.44 150.046 301.666 149.734C301.9 149.422 302.22 149.184 302.628 149.019C303.044 148.846 303.516 148.759 304.045 148.759C304.773 148.759 305.371 148.941 305.839 149.305C306.307 149.669 306.541 150.146 306.541 150.735C306.541 150.848 306.536 150.934 306.528 150.995H305.397L305.41 150.839C305.41 150.492 305.275 150.219 305.007 150.02C304.747 149.812 304.4 149.708 303.967 149.708C303.542 149.708 303.191 149.803 302.914 149.994C302.645 150.185 302.511 150.44 302.511 150.761C302.511 151.064 302.636 151.303 302.888 151.476C303.139 151.649 303.529 151.84 304.058 152.048C304.5 152.221 304.855 152.382 305.124 152.529C305.392 152.668 305.622 152.863 305.813 153.114C306.003 153.365 306.099 153.682 306.099 154.063C306.099 154.479 305.973 154.843 305.722 155.155C305.479 155.467 305.141 155.705 304.708 155.87C304.274 156.035 303.785 156.117 303.239 156.117ZM314.189 146.939L312.577 156H311.394L313.006 146.939H314.189ZM321.351 146.38L319.648 156H318.465L320.168 146.38H321.351ZM326.019 148.759C326.617 148.759 327.133 148.876 327.566 149.11C328.008 149.335 328.342 149.656 328.567 150.072C328.801 150.479 328.918 150.947 328.918 151.476C328.918 151.658 328.897 151.879 328.853 152.139C328.819 152.364 328.762 152.598 328.684 152.841H322.99C322.973 153.014 322.964 153.14 322.964 153.218C322.964 153.816 323.142 154.284 323.497 154.622C323.861 154.951 324.334 155.116 324.914 155.116C325.426 155.116 325.872 154.999 326.253 154.765C326.643 154.522 326.938 154.202 327.137 153.803H328.411C328.099 154.488 327.618 155.047 326.968 155.48C326.327 155.905 325.582 156.117 324.732 156.117C323.84 156.117 323.12 155.861 322.574 155.35C322.037 154.83 321.768 154.124 321.768 153.231C321.768 152.98 321.794 152.711 321.846 152.425C321.976 151.688 322.241 151.043 322.639 150.488C323.038 149.933 323.528 149.509 324.108 149.214C324.698 148.911 325.335 148.759 326.019 148.759ZM327.657 151.983C327.683 151.81 327.696 151.649 327.696 151.502C327.696 150.947 327.519 150.518 327.163 150.215C326.817 149.912 326.362 149.76 325.798 149.76C325.192 149.76 324.641 149.959 324.147 150.358C323.653 150.748 323.32 151.29 323.146 151.983H327.657ZM329.908 152.412C330.038 151.684 330.298 151.047 330.688 150.501C331.086 149.946 331.567 149.517 332.131 149.214C332.703 148.911 333.309 148.759 333.951 148.759C334.575 148.759 335.09 148.893 335.498 149.162C335.905 149.431 336.187 149.769 336.343 150.176L336.577 148.876H337.773L336.512 156H335.316L335.563 154.674C335.251 155.09 334.839 155.437 334.328 155.714C333.816 155.983 333.253 156.117 332.638 156.117C332.083 156.117 331.593 156 331.169 155.766C330.744 155.523 330.415 155.181 330.181 154.739C329.947 154.297 329.83 153.786 329.83 153.205C329.83 152.945 329.856 152.681 329.908 152.412ZM335.953 152.425C335.987 152.243 336.005 152.048 336.005 151.84C336.005 151.207 335.814 150.709 335.433 150.345C335.06 149.972 334.583 149.786 334.003 149.786C333.561 149.786 333.136 149.89 332.729 150.098C332.33 150.306 331.988 150.609 331.702 151.008C331.416 151.407 331.225 151.875 331.13 152.412C331.095 152.594 331.078 152.793 331.078 153.01C331.078 153.651 331.264 154.158 331.637 154.531C332.009 154.895 332.486 155.077 333.067 155.077C333.509 155.077 333.929 154.973 334.328 154.765C334.735 154.548 335.082 154.241 335.368 153.842C335.662 153.435 335.857 152.962 335.953 152.425ZM340.721 150.228C341.007 149.76 341.367 149.396 341.8 149.136C342.233 148.876 342.727 148.746 343.282 148.746L343.061 149.968H342.749C342.134 149.968 341.618 150.133 341.202 150.462C340.795 150.791 340.522 151.346 340.383 152.126L339.694 156H338.511L339.772 148.876H340.955L340.721 150.228ZM348.118 148.746C348.855 148.746 349.444 148.945 349.886 149.344C350.328 149.734 350.549 150.306 350.549 151.06C350.549 151.337 350.528 151.584 350.484 151.801L349.743 156H348.573L349.288 151.97C349.323 151.788 349.34 151.597 349.34 151.398C349.34 150.869 349.193 150.466 348.898 150.189C348.612 149.912 348.209 149.773 347.689 149.773C347.065 149.773 346.532 149.968 346.09 150.358C345.657 150.748 345.375 151.316 345.245 152.061V152.035L344.543 156H343.36L344.621 148.876H345.804L345.622 149.903C345.917 149.53 346.285 149.244 346.727 149.045C347.169 148.846 347.633 148.746 348.118 148.746ZM355.73 152.412C355.86 151.684 356.12 151.047 356.51 150.501C356.909 149.946 357.394 149.517 357.966 149.214C358.538 148.911 359.145 148.759 359.786 148.759C360.332 148.759 360.822 148.889 361.255 149.149C361.688 149.4 361.996 149.734 362.178 150.15L362.841 146.38H364.037L362.334 156H361.138L361.385 154.661C361.082 155.086 360.674 155.437 360.163 155.714C359.652 155.983 359.088 156.117 358.473 156.117C357.918 156.117 357.429 156 357.004 155.766C356.579 155.523 356.246 155.181 356.003 154.739C355.769 154.297 355.652 153.786 355.652 153.205C355.652 152.945 355.678 152.681 355.73 152.412ZM361.775 152.425C361.81 152.243 361.827 152.048 361.827 151.84C361.827 151.207 361.636 150.709 361.255 150.345C360.882 149.972 360.406 149.786 359.825 149.786C359.383 149.786 358.958 149.89 358.551 150.098C358.152 150.306 357.81 150.609 357.524 151.008C357.238 151.407 357.047 151.875 356.952 152.412C356.917 152.594 356.9 152.793 356.9 153.01C356.9 153.651 357.086 154.158 357.459 154.531C357.832 154.895 358.308 155.077 358.889 155.077C359.331 155.077 359.751 154.973 360.15 154.765C360.557 154.548 360.904 154.241 361.19 153.842C361.485 153.435 361.68 152.962 361.775 152.425ZM364.515 152.412C364.645 151.684 364.905 151.047 365.295 150.501C365.694 149.946 366.175 149.517 366.738 149.214C367.31 148.911 367.917 148.759 368.558 148.759C369.182 148.759 369.698 148.893 370.105 149.162C370.512 149.431 370.794 149.769 370.95 150.176L371.184 148.876H372.38L371.119 156H369.923L370.17 154.674C369.858 155.09 369.446 155.437 368.935 155.714C368.424 155.983 367.86 156.117 367.245 156.117C366.69 156.117 366.201 156 365.776 155.766C365.351 155.523 365.022 155.181 364.788 154.739C364.554 154.297 364.437 153.786 364.437 153.205C364.437 152.945 364.463 152.681 364.515 152.412ZM370.56 152.425C370.595 152.243 370.612 152.048 370.612 151.84C370.612 151.207 370.421 150.709 370.04 150.345C369.667 149.972 369.191 149.786 368.61 149.786C368.168 149.786 367.743 149.89 367.336 150.098C366.937 150.306 366.595 150.609 366.309 151.008C366.023 151.407 365.832 151.875 365.737 152.412C365.702 152.594 365.685 152.793 365.685 153.01C365.685 153.651 365.871 154.158 366.244 154.531C366.617 154.895 367.093 155.077 367.674 155.077C368.116 155.077 368.536 154.973 368.935 154.765C369.342 154.548 369.689 154.241 369.975 153.842C370.27 153.435 370.465 152.962 370.56 152.425ZM374.847 148.876L376.056 154.622L379.293 148.876H380.515L374.379 159.354H373.144L375.159 155.922L373.534 148.876H374.847ZM386.11 154.05C386.084 154.18 386.071 154.293 386.071 154.388C386.071 154.605 386.136 154.761 386.266 154.856C386.404 154.951 386.625 154.999 386.929 154.999H387.8L387.618 156H386.552C385.988 156 385.564 155.892 385.278 155.675C385 155.458 384.862 155.103 384.862 154.609C384.862 154.418 384.879 154.232 384.914 154.05L385.655 149.851H384.745L384.914 148.876H385.837L386.149 147.082H387.345L387.033 148.876H388.879L388.71 149.851H386.851L386.11 154.05ZM392.184 156.117C391.586 156.117 391.057 155.996 390.598 155.753C390.147 155.502 389.796 155.155 389.545 154.713C389.294 154.262 389.168 153.742 389.168 153.153C389.168 152.347 389.354 151.61 389.727 150.943C390.1 150.267 390.611 149.734 391.261 149.344C391.92 148.954 392.652 148.759 393.458 148.759C394.056 148.759 394.585 148.885 395.044 149.136C395.512 149.379 395.872 149.725 396.123 150.176C396.383 150.618 396.513 151.138 396.513 151.736C396.513 152.542 396.322 153.279 395.941 153.946C395.56 154.613 395.04 155.142 394.381 155.532C393.722 155.922 392.99 156.117 392.184 156.117ZM392.327 155.116C392.89 155.116 393.397 154.964 393.848 154.661C394.299 154.349 394.65 153.942 394.901 153.439C395.161 152.928 395.291 152.382 395.291 151.801C395.291 151.142 395.1 150.64 394.719 150.293C394.338 149.938 393.861 149.76 393.289 149.76C392.726 149.76 392.223 149.916 391.781 150.228C391.339 150.531 390.997 150.939 390.754 151.45C390.511 151.961 390.39 152.512 390.39 153.101C390.39 153.742 390.572 154.241 390.936 154.596C391.3 154.943 391.764 155.116 392.327 155.116ZM401.42 152.412C401.55 151.684 401.81 151.047 402.2 150.501C402.599 149.946 403.084 149.517 403.656 149.214C404.228 148.911 404.835 148.759 405.476 148.759C406.022 148.759 406.512 148.889 406.945 149.149C407.379 149.4 407.686 149.734 407.868 150.15L408.531 146.38H409.727L408.024 156H406.828L407.075 154.661C406.772 155.086 406.365 155.437 405.853 155.714C405.342 155.983 404.779 156.117 404.163 156.117C403.609 156.117 403.119 156 402.694 155.766C402.27 155.523 401.936 155.181 401.693 154.739C401.459 154.297 401.342 153.786 401.342 153.205C401.342 152.945 401.368 152.681 401.42 152.412ZM407.465 152.425C407.5 152.243 407.517 152.048 407.517 151.84C407.517 151.207 407.327 150.709 406.945 150.345C406.573 149.972 406.096 149.786 405.515 149.786C405.073 149.786 404.649 149.89 404.241 150.098C403.843 150.306 403.5 150.609 403.214 151.008C402.928 151.407 402.738 151.875 402.642 152.412C402.608 152.594 402.59 152.793 402.59 153.01C402.59 153.651 402.777 154.158 403.149 154.531C403.522 154.895 403.999 155.077 404.579 155.077C405.021 155.077 405.442 154.973 405.84 154.765C406.248 154.548 406.594 154.241 406.88 153.842C407.175 153.435 407.37 152.962 407.465 152.425ZM410.206 152.412C410.336 151.684 410.596 151.047 410.986 150.501C411.384 149.946 411.865 149.517 412.429 149.214C413.001 148.911 413.607 148.759 414.249 148.759C414.873 148.759 415.388 148.893 415.796 149.162C416.203 149.431 416.485 149.769 416.641 150.176L416.875 148.876H418.071L416.81 156H415.614L415.861 154.674C415.549 155.09 415.137 155.437 414.626 155.714C414.114 155.983 413.551 156.117 412.936 156.117C412.381 156.117 411.891 156 411.467 155.766C411.042 155.523 410.713 155.181 410.479 154.739C410.245 154.297 410.128 153.786 410.128 153.205C410.128 152.945 410.154 152.681 410.206 152.412ZM416.251 152.425C416.285 152.243 416.303 152.048 416.303 151.84C416.303 151.207 416.112 150.709 415.731 150.345C415.358 149.972 414.881 149.786 414.301 149.786C413.859 149.786 413.434 149.89 413.027 150.098C412.628 150.306 412.286 150.609 412 151.008C411.714 151.407 411.523 151.875 411.428 152.412C411.393 152.594 411.376 152.793 411.376 153.01C411.376 153.651 411.562 154.158 411.935 154.531C412.307 154.895 412.784 155.077 413.365 155.077C413.807 155.077 414.227 154.973 414.626 154.765C415.033 154.548 415.38 154.241 415.666 153.842C415.96 153.435 416.155 152.962 416.251 152.425ZM420.538 148.876L421.747 154.622L424.984 148.876H426.206L420.07 159.354H418.835L420.85 155.922L419.225 148.876H420.538ZM430.188 152.412C430.318 151.684 430.578 151.047 430.968 150.501C431.367 149.946 431.848 149.517 432.411 149.214C432.983 148.911 433.59 148.759 434.231 148.759C434.855 148.759 435.371 148.893 435.778 149.162C436.185 149.431 436.467 149.769 436.623 150.176L436.857 148.876H438.053L436.792 156H435.596L435.843 154.674C435.531 155.09 435.119 155.437 434.608 155.714C434.097 155.983 433.533 156.117 432.918 156.117C432.363 156.117 431.874 156 431.449 155.766C431.024 155.523 430.695 155.181 430.461 154.739C430.227 154.297 430.11 153.786 430.11 153.205C430.11 152.945 430.136 152.681 430.188 152.412ZM436.233 152.425C436.268 152.243 436.285 152.048 436.285 151.84C436.285 151.207 436.094 150.709 435.713 150.345C435.34 149.972 434.864 149.786 434.283 149.786C433.841 149.786 433.416 149.89 433.009 150.098C432.61 150.306 432.268 150.609 431.982 151.008C431.696 151.407 431.505 151.875 431.41 152.412C431.375 152.594 431.358 152.793 431.358 153.01C431.358 153.651 431.544 154.158 431.917 154.531C432.29 154.895 432.766 155.077 433.347 155.077C433.789 155.077 434.209 154.973 434.608 154.765C435.015 154.548 435.362 154.241 435.648 153.842C435.943 153.435 436.138 152.962 436.233 152.425ZM438.973 152.425C439.103 151.688 439.363 151.047 439.753 150.501C440.152 149.946 440.641 149.517 441.222 149.214C441.803 148.911 442.431 148.759 443.107 148.759C443.982 148.759 444.663 148.971 445.148 149.396C445.642 149.821 445.915 150.41 445.967 151.164H444.693C444.65 150.731 444.472 150.388 444.16 150.137C443.857 149.886 443.445 149.76 442.925 149.76C442.249 149.76 441.66 149.994 441.157 150.462C440.663 150.921 440.342 151.576 440.195 152.425C440.152 152.711 440.13 152.949 440.13 153.14C440.13 153.773 440.299 154.262 440.637 154.609C440.975 154.947 441.426 155.116 441.989 155.116C442.509 155.116 442.96 154.995 443.341 154.752C443.731 154.509 444.03 154.163 444.238 153.712H445.512C445.2 154.44 444.719 155.025 444.069 155.467C443.419 155.9 442.665 156.117 441.807 156.117C440.914 156.117 440.204 155.861 439.675 155.35C439.155 154.839 438.895 154.141 438.895 153.257C438.895 152.988 438.921 152.711 438.973 152.425ZM448.898 150.228C449.184 149.76 449.543 149.396 449.977 149.136C450.41 148.876 450.904 148.746 451.459 148.746L451.238 149.968H450.926C450.31 149.968 449.795 150.133 449.379 150.462C448.971 150.791 448.698 151.346 448.56 152.126L447.871 156H446.688L447.949 148.876H449.132L448.898 150.228ZM454.67 156.117C454.072 156.117 453.544 155.996 453.084 155.753C452.634 155.502 452.283 155.155 452.031 154.713C451.78 154.262 451.654 153.742 451.654 153.153C451.654 152.347 451.841 151.61 452.213 150.943C452.586 150.267 453.097 149.734 453.747 149.344C454.406 148.954 455.138 148.759 455.944 148.759C456.542 148.759 457.071 148.885 457.53 149.136C457.998 149.379 458.358 149.725 458.609 150.176C458.869 150.618 458.999 151.138 458.999 151.736C458.999 152.542 458.809 153.279 458.427 153.946C458.046 154.613 457.526 155.142 456.867 155.532C456.209 155.922 455.476 156.117 454.67 156.117ZM454.813 155.116C455.377 155.116 455.884 154.964 456.334 154.661C456.785 154.349 457.136 153.942 457.387 153.439C457.647 152.928 457.777 152.382 457.777 151.801C457.777 151.142 457.587 150.64 457.205 150.293C456.824 149.938 456.347 149.76 455.775 149.76C455.212 149.76 454.709 149.916 454.267 150.228C453.825 150.531 453.483 150.939 453.24 151.45C452.998 151.961 452.876 152.512 452.876 153.101C452.876 153.742 453.058 154.241 453.422 154.596C453.786 154.943 454.25 155.116 454.813 155.116ZM462.362 156.117C461.616 156.117 461.005 155.939 460.529 155.584C460.052 155.229 459.814 154.752 459.814 154.154C459.814 154.041 459.818 153.959 459.827 153.907H460.984C460.949 154.28 461.057 154.583 461.309 154.817C461.569 155.051 461.941 155.168 462.427 155.168C462.912 155.168 463.302 155.077 463.597 154.895C463.9 154.704 464.052 154.44 464.052 154.102C464.052 153.816 463.93 153.591 463.688 153.426C463.445 153.261 463.072 153.084 462.57 152.893C462.128 152.728 461.764 152.572 461.478 152.425C461.192 152.278 460.949 152.074 460.75 151.814C460.55 151.545 460.451 151.207 460.451 150.8C460.451 150.401 460.563 150.046 460.789 149.734C461.023 149.422 461.343 149.184 461.751 149.019C462.167 148.846 462.639 148.759 463.168 148.759C463.896 148.759 464.494 148.941 464.962 149.305C465.43 149.669 465.664 150.146 465.664 150.735C465.664 150.848 465.659 150.934 465.651 150.995H464.52L464.533 150.839C464.533 150.492 464.398 150.219 464.13 150.02C463.87 149.812 463.523 149.708 463.09 149.708C462.665 149.708 462.314 149.803 462.037 149.994C461.768 150.185 461.634 150.44 461.634 150.761C461.634 151.064 461.759 151.303 462.011 151.476C462.262 151.649 462.652 151.84 463.181 152.048C463.623 152.221 463.978 152.382 464.247 152.529C464.515 152.668 464.745 152.863 464.936 153.114C465.126 153.365 465.222 153.682 465.222 154.063C465.222 154.479 465.096 154.843 464.845 155.155C464.602 155.467 464.264 155.705 463.831 155.87C463.397 156.035 462.908 156.117 462.362 156.117ZM469.154 156.117C468.408 156.117 467.797 155.939 467.321 155.584C466.844 155.229 466.606 154.752 466.606 154.154C466.606 154.041 466.61 153.959 466.619 153.907H467.776C467.741 154.28 467.849 154.583 468.101 154.817C468.361 155.051 468.733 155.168 469.219 155.168C469.704 155.168 470.094 155.077 470.389 154.895C470.692 154.704 470.844 154.44 470.844 154.102C470.844 153.816 470.722 153.591 470.48 153.426C470.237 153.261 469.864 153.084 469.362 152.893C468.92 152.728 468.556 152.572 468.27 152.425C467.984 152.278 467.741 152.074 467.542 151.814C467.342 151.545 467.243 151.207 467.243 150.8C467.243 150.401 467.355 150.046 467.581 149.734C467.815 149.422 468.135 149.184 468.543 149.019C468.959 148.846 469.431 148.759 469.96 148.759C470.688 148.759 471.286 148.941 471.754 149.305C472.222 149.669 472.456 150.146 472.456 150.735C472.456 150.848 472.451 150.934 472.443 150.995H471.312L471.325 150.839C471.325 150.492 471.19 150.219 470.922 150.02C470.662 149.812 470.315 149.708 469.882 149.708C469.457 149.708 469.106 149.803 468.829 149.994C468.56 150.185 468.426 150.44 468.426 150.761C468.426 151.064 468.551 151.303 468.803 151.476C469.054 151.649 469.444 151.84 469.973 152.048C470.415 152.221 470.77 152.382 471.039 152.529C471.307 152.668 471.537 152.863 471.728 153.114C471.918 153.365 472.014 153.682 472.014 154.063C472.014 154.479 471.888 154.843 471.637 155.155C471.394 155.467 471.056 155.705 470.623 155.87C470.189 156.035 469.7 156.117 469.154 156.117ZM477.491 152.412C477.621 151.684 477.881 151.047 478.271 150.501C478.669 149.946 479.15 149.517 479.714 149.214C480.286 148.911 480.892 148.759 481.534 148.759C482.158 148.759 482.673 148.893 483.081 149.162C483.488 149.431 483.77 149.769 483.926 150.176L484.16 148.876H485.356L484.095 156H482.899L483.146 154.674C482.834 155.09 482.422 155.437 481.911 155.714C481.399 155.983 480.836 156.117 480.221 156.117C479.666 156.117 479.176 156 478.752 155.766C478.327 155.523 477.998 155.181 477.764 154.739C477.53 154.297 477.413 153.786 477.413 153.205C477.413 152.945 477.439 152.681 477.491 152.412ZM483.536 152.425C483.57 152.243 483.588 152.048 483.588 151.84C483.588 151.207 483.397 150.709 483.016 150.345C482.643 149.972 482.166 149.786 481.586 149.786C481.144 149.786 480.719 149.89 480.312 150.098C479.913 150.306 479.571 150.609 479.285 151.008C478.999 151.407 478.808 151.875 478.713 152.412C478.678 152.594 478.661 152.793 478.661 153.01C478.661 153.651 478.847 154.158 479.22 154.531C479.592 154.895 480.069 155.077 480.65 155.077C481.092 155.077 481.512 154.973 481.911 154.765C482.318 154.548 482.665 154.241 482.951 153.842C483.245 153.435 483.44 152.962 483.536 152.425ZM492.813 154.882L496.089 148.876H497.363L493.307 156H491.916L490.382 148.876H491.656L492.813 154.882ZM497.435 152.412C497.565 151.684 497.825 151.047 498.215 150.501C498.614 149.946 499.095 149.517 499.658 149.214C500.23 148.911 500.837 148.759 501.478 148.759C502.102 148.759 502.618 148.893 503.025 149.162C503.432 149.431 503.714 149.769 503.87 150.176L504.104 148.876H505.3L504.039 156H502.843L503.09 154.674C502.778 155.09 502.366 155.437 501.855 155.714C501.344 155.983 500.78 156.117 500.165 156.117C499.61 156.117 499.121 156 498.696 155.766C498.271 155.523 497.942 155.181 497.708 154.739C497.474 154.297 497.357 153.786 497.357 153.205C497.357 152.945 497.383 152.681 497.435 152.412ZM503.48 152.425C503.515 152.243 503.532 152.048 503.532 151.84C503.532 151.207 503.341 150.709 502.96 150.345C502.587 149.972 502.111 149.786 501.53 149.786C501.088 149.786 500.663 149.89 500.256 150.098C499.857 150.306 499.515 150.609 499.229 151.008C498.943 151.407 498.752 151.875 498.657 152.412C498.622 152.594 498.605 152.793 498.605 153.01C498.605 153.651 498.791 154.158 499.164 154.531C499.537 154.895 500.013 155.077 500.594 155.077C501.036 155.077 501.456 154.973 501.855 154.765C502.262 154.548 502.609 154.241 502.895 153.842C503.19 153.435 503.385 152.962 503.48 152.425ZM508.248 150.228C508.534 149.76 508.894 149.396 509.327 149.136C509.761 148.876 510.255 148.746 510.809 148.746L510.588 149.968H510.276C509.661 149.968 509.145 150.133 508.729 150.462C508.322 150.791 508.049 151.346 507.91 152.126L507.221 156H506.038L507.299 148.876H508.482L508.248 150.228ZM512.955 147.719C512.764 147.719 512.604 147.658 512.474 147.537C512.352 147.407 512.292 147.247 512.292 147.056C512.292 146.796 512.387 146.575 512.578 146.393C512.768 146.202 512.989 146.107 513.241 146.107C513.44 146.107 513.6 146.168 513.722 146.289C513.843 146.41 513.904 146.571 513.904 146.77C513.904 147.03 513.808 147.255 513.618 147.446C513.427 147.628 513.206 147.719 512.955 147.719ZM513.332 148.876L512.071 156H510.888L512.149 148.876H513.332ZM518.442 148.759C519.04 148.759 519.556 148.876 519.989 149.11C520.431 149.335 520.765 149.656 520.99 150.072C521.224 150.479 521.341 150.947 521.341 151.476C521.341 151.658 521.319 151.879 521.276 152.139C521.241 152.364 521.185 152.598 521.107 152.841H515.413C515.396 153.014 515.387 153.14 515.387 153.218C515.387 153.816 515.565 154.284 515.92 154.622C516.284 154.951 516.756 155.116 517.337 155.116C517.848 155.116 518.295 154.999 518.676 154.765C519.066 154.522 519.361 154.202 519.56 153.803H520.834C520.522 154.488 520.041 155.047 519.391 155.48C518.75 155.905 518.004 156.117 517.155 156.117C516.262 156.117 515.543 155.861 514.997 155.35C514.46 154.83 514.191 154.124 514.191 153.231C514.191 152.98 514.217 152.711 514.269 152.425C514.399 151.688 514.663 151.043 515.062 150.488C515.461 149.933 515.95 149.509 516.531 149.214C517.12 148.911 517.757 148.759 518.442 148.759ZM520.08 151.983C520.106 151.81 520.119 151.649 520.119 151.502C520.119 150.947 519.941 150.518 519.586 150.215C519.239 149.912 518.784 149.76 518.221 149.76C517.614 149.76 517.064 149.959 516.57 150.358C516.076 150.748 515.742 151.29 515.569 151.983H520.08ZM523.943 154.05C523.917 154.18 523.904 154.293 523.904 154.388C523.904 154.605 523.969 154.761 524.099 154.856C524.237 154.951 524.458 154.999 524.762 154.999H525.633L525.451 156H524.385C523.821 156 523.397 155.892 523.111 155.675C522.833 155.458 522.695 155.103 522.695 154.609C522.695 154.418 522.712 154.232 522.747 154.05L523.488 149.851H522.578L522.747 148.876H523.67L523.982 147.082H525.178L524.866 148.876H526.712L526.543 149.851H524.684L523.943 154.05ZM528.613 148.876L529.822 154.622L533.059 148.876H534.281L528.145 159.354H526.91L528.925 155.922L527.3 148.876H528.613ZM541.214 156.117C540.616 156.117 540.087 155.996 539.628 155.753C539.177 155.502 538.826 155.155 538.575 154.713C538.324 154.262 538.198 153.742 538.198 153.153C538.198 152.347 538.384 151.61 538.757 150.943C539.13 150.267 539.641 149.734 540.291 149.344C540.95 148.954 541.682 148.759 542.488 148.759C543.086 148.759 543.615 148.885 544.074 149.136C544.542 149.379 544.902 149.725 545.153 150.176C545.413 150.618 545.543 151.138 545.543 151.736C545.543 152.542 545.352 153.279 544.971 153.946C544.59 154.613 544.07 155.142 543.411 155.532C542.752 155.922 542.02 156.117 541.214 156.117ZM541.357 155.116C541.92 155.116 542.427 154.964 542.878 154.661C543.329 154.349 543.68 153.942 543.931 153.439C544.191 152.928 544.321 152.382 544.321 151.801C544.321 151.142 544.13 150.64 543.749 150.293C543.368 149.938 542.891 149.76 542.319 149.76C541.756 149.76 541.253 149.916 540.811 150.228C540.369 150.531 540.027 150.939 539.784 151.45C539.541 151.961 539.42 152.512 539.42 153.101C539.42 153.742 539.602 154.241 539.966 154.596C540.33 154.943 540.794 155.116 541.357 155.116ZM550.804 147.056C550.275 147.056 549.885 147.16 549.634 147.368C549.391 147.567 549.231 147.901 549.153 148.369L549.062 148.876H550.557L550.388 149.851H548.893L547.801 156H546.618L547.697 149.851H546.787L546.956 148.876H547.866L547.957 148.369C548.104 147.572 548.416 146.991 548.893 146.627C549.369 146.254 550.063 146.068 550.973 146.068L550.804 147.056ZM87.224 166.38L85.521 176H84.338L86.041 166.38H87.224ZM87.7192 172.412C87.8492 171.684 88.1092 171.047 88.4992 170.501C88.8979 169.946 89.3789 169.517 89.9422 169.214C90.5142 168.911 91.1209 168.759 91.7622 168.759C92.3862 168.759 92.9019 168.893 93.3092 169.162C93.7166 169.431 93.9982 169.769 94.1542 170.176L94.3882 168.876H95.5842L94.3232 176H93.1272L93.3742 174.674C93.0622 175.09 92.6506 175.437 92.1392 175.714C91.6279 175.983 91.0646 176.117 90.4492 176.117C89.8946 176.117 89.4049 176 88.9802 175.766C88.5556 175.523 88.2262 175.181 87.9922 174.739C87.7582 174.297 87.6412 173.786 87.6412 173.205C87.6412 172.945 87.6672 172.681 87.7192 172.412ZM93.7642 172.425C93.7989 172.243 93.8162 172.048 93.8162 171.84C93.8162 171.207 93.6256 170.709 93.2442 170.345C92.8716 169.972 92.3949 169.786 91.8142 169.786C91.3722 169.786 90.9476 169.89 90.5402 170.098C90.1416 170.306 89.7992 170.609 89.5132 171.008C89.2272 171.407 89.0366 171.875 88.9412 172.412C88.9066 172.594 88.8892 172.793 88.8892 173.01C88.8892 173.651 89.0756 174.158 89.4482 174.531C89.8209 174.895 90.2976 175.077 90.8782 175.077C91.3202 175.077 91.7406 174.973 92.1392 174.765C92.5466 174.548 92.8932 174.241 93.1792 173.842C93.4739 173.435 93.6689 172.962 93.7642 172.425ZM101.08 168.746C101.817 168.746 102.406 168.945 102.848 169.344C103.29 169.734 103.511 170.306 103.511 171.06C103.511 171.337 103.49 171.584 103.446 171.801L102.705 176H101.535L102.25 171.97C102.285 171.788 102.302 171.597 102.302 171.398C102.302 170.869 102.155 170.466 101.86 170.189C101.574 169.912 101.171 169.773 100.651 169.773C100.027 169.773 99.4944 169.968 99.0524 170.358C98.619 170.748 98.3374 171.316 98.2074 172.061V172.035L97.5054 176H96.3224L97.5834 168.876H98.7664L98.5844 169.903C98.879 169.53 99.2474 169.244 99.6894 169.045C100.131 168.846 100.595 168.746 101.08 168.746ZM108.863 168.759C109.478 168.759 109.994 168.893 110.41 169.162C110.826 169.431 111.107 169.769 111.255 170.176L111.489 168.876H112.685L111.398 176.156C111.285 176.806 111.042 177.382 110.67 177.885C110.306 178.396 109.842 178.795 109.279 179.081C108.715 179.367 108.091 179.51 107.407 179.51C106.471 179.51 105.73 179.285 105.184 178.834C104.638 178.392 104.373 177.794 104.391 177.04H105.574C105.626 177.473 105.829 177.82 106.185 178.08C106.549 178.349 107.017 178.483 107.589 178.483C108.239 178.483 108.806 178.279 109.292 177.872C109.777 177.465 110.085 176.893 110.215 176.156L110.475 174.661C110.163 175.077 109.751 175.424 109.24 175.701C108.737 175.978 108.178 176.117 107.563 176.117C107.008 176.117 106.518 176 106.094 175.766C105.669 175.523 105.335 175.181 105.093 174.739C104.859 174.297 104.742 173.786 104.742 173.205C104.742 172.945 104.768 172.681 104.82 172.412C104.95 171.684 105.21 171.047 105.6 170.501C105.998 169.946 106.479 169.517 107.043 169.214C107.615 168.911 108.221 168.759 108.863 168.759ZM110.865 172.425C110.899 172.243 110.917 172.048 110.917 171.84C110.917 171.207 110.726 170.709 110.345 170.345C109.972 169.972 109.495 169.786 108.915 169.786C108.473 169.786 108.048 169.89 107.641 170.098C107.242 170.306 106.9 170.609 106.614 171.008C106.328 171.407 106.137 171.875 106.042 172.412C106.007 172.594 105.99 172.793 105.99 173.01C105.99 173.651 106.176 174.158 106.549 174.531C106.921 174.895 107.398 175.077 107.979 175.077C108.421 175.077 108.841 174.973 109.24 174.765C109.647 174.548 109.994 174.241 110.28 173.842C110.574 173.435 110.769 172.962 110.865 172.425ZM121.002 168.876L119.741 176H118.558L118.74 174.96C118.454 175.324 118.09 175.606 117.648 175.805C117.206 176.004 116.747 176.104 116.27 176.104C115.525 176.104 114.927 175.905 114.476 175.506C114.034 175.099 113.813 174.518 113.813 173.764C113.813 173.573 113.835 173.335 113.878 173.049L114.619 168.876H115.789L115.087 172.893C115.052 173.075 115.035 173.266 115.035 173.465C115.035 173.994 115.178 174.397 115.464 174.674C115.759 174.943 116.166 175.077 116.686 175.077C117.31 175.077 117.839 174.882 118.272 174.492C118.714 174.102 118.996 173.534 119.117 172.789V172.828L119.819 168.876H121.002ZM121.92 172.412C122.05 171.684 122.31 171.047 122.7 170.501C123.099 169.946 123.58 169.517 124.143 169.214C124.715 168.911 125.322 168.759 125.963 168.759C126.587 168.759 127.103 168.893 127.51 169.162C127.918 169.431 128.199 169.769 128.355 170.176L128.589 168.876H129.785L128.524 176H127.328L127.575 174.674C127.263 175.09 126.852 175.437 126.34 175.714C125.829 175.983 125.266 176.117 124.65 176.117C124.096 176.117 123.606 176 123.181 175.766C122.757 175.523 122.427 175.181 122.193 174.739C121.959 174.297 121.842 173.786 121.842 173.205C121.842 172.945 121.868 172.681 121.92 172.412ZM127.965 172.425C128 172.243 128.017 172.048 128.017 171.84C128.017 171.207 127.827 170.709 127.445 170.345C127.073 169.972 126.596 169.786 126.015 169.786C125.573 169.786 125.149 169.89 124.741 170.098C124.343 170.306 124 170.609 123.714 171.008C123.428 171.407 123.238 171.875 123.142 172.412C123.108 172.594 123.09 172.793 123.09 173.01C123.09 173.651 123.277 174.158 123.649 174.531C124.022 174.895 124.499 175.077 125.079 175.077C125.521 175.077 125.942 174.973 126.34 174.765C126.748 174.548 127.094 174.241 127.38 173.842C127.675 173.435 127.87 172.962 127.965 172.425ZM134.749 168.759C135.364 168.759 135.88 168.893 136.296 169.162C136.712 169.431 136.993 169.769 137.141 170.176L137.375 168.876H138.571L137.284 176.156C137.171 176.806 136.928 177.382 136.556 177.885C136.192 178.396 135.728 178.795 135.165 179.081C134.601 179.367 133.977 179.51 133.293 179.51C132.357 179.51 131.616 179.285 131.07 178.834C130.524 178.392 130.259 177.794 130.277 177.04H131.46C131.512 177.473 131.715 177.82 132.071 178.08C132.435 178.349 132.903 178.483 133.475 178.483C134.125 178.483 134.692 178.279 135.178 177.872C135.663 177.465 135.971 176.893 136.101 176.156L136.361 174.661C136.049 175.077 135.637 175.424 135.126 175.701C134.623 175.978 134.064 176.117 133.449 176.117C132.894 176.117 132.404 176 131.98 175.766C131.555 175.523 131.221 175.181 130.979 174.739C130.745 174.297 130.628 173.786 130.628 173.205C130.628 172.945 130.654 172.681 130.706 172.412C130.836 171.684 131.096 171.047 131.486 170.501C131.884 169.946 132.365 169.517 132.929 169.214C133.501 168.911 134.107 168.759 134.749 168.759ZM136.751 172.425C136.785 172.243 136.803 172.048 136.803 171.84C136.803 171.207 136.612 170.709 136.231 170.345C135.858 169.972 135.381 169.786 134.801 169.786C134.359 169.786 133.934 169.89 133.527 170.098C133.128 170.306 132.786 170.609 132.5 171.008C132.214 171.407 132.023 171.875 131.928 172.412C131.893 172.594 131.876 172.793 131.876 173.01C131.876 173.651 132.062 174.158 132.435 174.531C132.807 174.895 133.284 175.077 133.865 175.077C134.307 175.077 134.727 174.973 135.126 174.765C135.533 174.548 135.88 174.241 136.166 173.842C136.46 173.435 136.655 172.962 136.751 172.425ZM143.664 168.759C144.262 168.759 144.777 168.876 145.211 169.11C145.653 169.335 145.986 169.656 146.212 170.072C146.446 170.479 146.563 170.947 146.563 171.476C146.563 171.658 146.541 171.879 146.498 172.139C146.463 172.364 146.407 172.598 146.329 172.841H140.635C140.617 173.014 140.609 173.14 140.609 173.218C140.609 173.816 140.786 174.284 141.142 174.622C141.506 174.951 141.978 175.116 142.559 175.116C143.07 175.116 143.516 174.999 143.898 174.765C144.288 174.522 144.582 174.202 144.782 173.803H146.056C145.744 174.488 145.263 175.047 144.613 175.48C143.971 175.905 143.226 176.117 142.377 176.117C141.484 176.117 140.765 175.861 140.219 175.35C139.681 174.83 139.413 174.124 139.413 173.231C139.413 172.98 139.439 172.711 139.491 172.425C139.621 171.688 139.885 171.043 140.284 170.488C140.682 169.933 141.172 169.509 141.753 169.214C142.342 168.911 142.979 168.759 143.664 168.759ZM145.302 171.983C145.328 171.81 145.341 171.649 145.341 171.502C145.341 170.947 145.163 170.518 144.808 170.215C144.461 169.912 144.006 169.76 143.443 169.76C142.836 169.76 142.286 169.959 141.792 170.358C141.298 170.748 140.964 171.29 140.791 171.983H145.302ZM149.879 176.117C149.134 176.117 148.523 175.939 148.046 175.584C147.57 175.229 147.331 174.752 147.331 174.154C147.331 174.041 147.336 173.959 147.344 173.907H148.501C148.467 174.28 148.575 174.583 148.826 174.817C149.086 175.051 149.459 175.168 149.944 175.168C150.43 175.168 150.82 175.077 151.114 174.895C151.418 174.704 151.569 174.44 151.569 174.102C151.569 173.816 151.448 173.591 151.205 173.426C150.963 173.261 150.59 173.084 150.087 172.893C149.645 172.728 149.281 172.572 148.995 172.425C148.709 172.278 148.467 172.074 148.267 171.814C148.068 171.545 147.968 171.207 147.968 170.8C147.968 170.401 148.081 170.046 148.306 169.734C148.54 169.422 148.861 169.184 149.268 169.019C149.684 168.846 150.157 168.759 150.685 168.759C151.413 168.759 152.011 168.941 152.479 169.305C152.947 169.669 153.181 170.146 153.181 170.735C153.181 170.848 153.177 170.934 153.168 170.995H152.037L152.05 170.839C152.05 170.492 151.916 170.219 151.647 170.02C151.387 169.812 151.041 169.708 150.607 169.708C150.183 169.708 149.832 169.803 149.554 169.994C149.286 170.185 149.151 170.44 149.151 170.761C149.151 171.064 149.277 171.303 149.528 171.476C149.78 171.649 150.17 171.84 150.698 172.048C151.14 172.221 151.496 172.382 151.764 172.529C152.033 172.668 152.263 172.863 152.453 173.114C152.644 173.365 152.739 173.682 152.739 174.063C152.739 174.479 152.614 174.843 152.362 175.155C152.12 175.467 151.782 175.705 151.348 175.87C150.915 176.035 150.425 176.117 149.879 176.117ZM158.216 172.412C158.346 171.684 158.606 171.047 158.996 170.501C159.395 169.946 159.876 169.517 160.439 169.214C161.011 168.911 161.618 168.759 162.259 168.759C162.883 168.759 163.399 168.893 163.806 169.162C164.214 169.431 164.495 169.769 164.651 170.176L164.885 168.876H166.081L164.82 176H163.624L163.871 174.674C163.559 175.09 163.148 175.437 162.636 175.714C162.125 175.983 161.562 176.117 160.946 176.117C160.392 176.117 159.902 176 159.477 175.766C159.053 175.523 158.723 175.181 158.489 174.739C158.255 174.297 158.138 173.786 158.138 173.205C158.138 172.945 158.164 172.681 158.216 172.412ZM164.261 172.425C164.296 172.243 164.313 172.048 164.313 171.84C164.313 171.207 164.123 170.709 163.741 170.345C163.369 169.972 162.892 169.786 162.311 169.786C161.869 169.786 161.445 169.89 161.037 170.098C160.639 170.306 160.296 170.609 160.01 171.008C159.724 171.407 159.534 171.875 159.438 172.412C159.404 172.594 159.386 172.793 159.386 173.01C159.386 173.651 159.573 174.158 159.945 174.531C160.318 174.895 160.795 175.077 161.375 175.077C161.817 175.077 162.238 174.973 162.636 174.765C163.044 174.548 163.39 174.241 163.676 173.842C163.971 173.435 164.166 172.962 164.261 172.425ZM171.577 168.746C172.314 168.746 172.903 168.945 173.345 169.344C173.787 169.734 174.008 170.306 174.008 171.06C174.008 171.337 173.987 171.584 173.943 171.801L173.202 176H172.032L172.747 171.97C172.782 171.788 172.799 171.597 172.799 171.398C172.799 170.869 172.652 170.466 172.357 170.189C172.071 169.912 171.668 169.773 171.148 169.773C170.524 169.773 169.991 169.968 169.549 170.358C169.116 170.748 168.834 171.316 168.704 172.061V172.035L168.002 176H166.819L168.08 168.876H169.263L169.081 169.903C169.376 169.53 169.744 169.244 170.186 169.045C170.628 168.846 171.092 168.746 171.577 168.746ZM175.317 172.412C175.447 171.684 175.707 171.047 176.097 170.501C176.496 169.946 176.981 169.517 177.553 169.214C178.125 168.911 178.732 168.759 179.373 168.759C179.919 168.759 180.409 168.889 180.842 169.149C181.275 169.4 181.583 169.734 181.765 170.15L182.428 166.38H183.624L181.921 176H180.725L180.972 174.661C180.669 175.086 180.261 175.437 179.75 175.714C179.239 175.983 178.675 176.117 178.06 176.117C177.505 176.117 177.016 176 176.591 175.766C176.166 175.523 175.833 175.181 175.59 174.739C175.356 174.297 175.239 173.786 175.239 173.205C175.239 172.945 175.265 172.681 175.317 172.412ZM181.362 172.425C181.397 172.243 181.414 172.048 181.414 171.84C181.414 171.207 181.223 170.709 180.842 170.345C180.469 169.972 179.993 169.786 179.412 169.786C178.97 169.786 178.545 169.89 178.138 170.098C177.739 170.306 177.397 170.609 177.111 171.008C176.825 171.407 176.634 171.875 176.539 172.412C176.504 172.594 176.487 172.793 176.487 173.01C176.487 173.651 176.673 174.158 177.046 174.531C177.419 174.895 177.895 175.077 178.476 175.077C178.918 175.077 179.338 174.973 179.737 174.765C180.144 174.548 180.491 174.241 180.777 173.842C181.072 173.435 181.267 172.962 181.362 172.425ZM189.586 174.05C189.56 174.18 189.547 174.293 189.547 174.388C189.547 174.605 189.612 174.761 189.742 174.856C189.881 174.951 190.102 174.999 190.405 174.999H191.276L191.094 176H190.028C189.465 176 189.04 175.892 188.754 175.675C188.477 175.458 188.338 175.103 188.338 174.609C188.338 174.418 188.355 174.232 188.39 174.05L189.131 169.851H188.221L188.39 168.876H189.313L189.625 167.082H190.821L190.509 168.876H192.355L192.186 169.851H190.327L189.586 174.05ZM196.882 168.759C197.48 168.759 197.996 168.876 198.429 169.11C198.871 169.335 199.205 169.656 199.43 170.072C199.664 170.479 199.781 170.947 199.781 171.476C199.781 171.658 199.76 171.879 199.716 172.139C199.682 172.364 199.625 172.598 199.547 172.841H193.853C193.836 173.014 193.827 173.14 193.827 173.218C193.827 173.816 194.005 174.284 194.36 174.622C194.724 174.951 195.197 175.116 195.777 175.116C196.289 175.116 196.735 174.999 197.116 174.765C197.506 174.522 197.801 174.202 198 173.803H199.274C198.962 174.488 198.481 175.047 197.831 175.48C197.19 175.905 196.445 176.117 195.595 176.117C194.703 176.117 193.983 175.861 193.437 175.35C192.9 174.83 192.631 174.124 192.631 173.231C192.631 172.98 192.657 172.711 192.709 172.425C192.839 171.688 193.104 171.043 193.502 170.488C193.901 169.933 194.391 169.509 194.971 169.214C195.561 168.911 196.198 168.759 196.882 168.759ZM198.52 171.983C198.546 171.81 198.559 171.649 198.559 171.502C198.559 170.947 198.382 170.518 198.026 170.215C197.68 169.912 197.225 169.76 196.661 169.76C196.055 169.76 195.504 169.959 195.01 170.358C194.516 170.748 194.183 171.29 194.009 171.983H198.52ZM200.771 172.425C200.901 171.688 201.161 171.047 201.551 170.501C201.95 169.946 202.439 169.517 203.02 169.214C203.601 168.911 204.229 168.759 204.905 168.759C205.78 168.759 206.461 168.971 206.946 169.396C207.44 169.821 207.713 170.41 207.765 171.164H206.491C206.448 170.731 206.27 170.388 205.958 170.137C205.655 169.886 205.243 169.76 204.723 169.76C204.047 169.76 203.458 169.994 202.955 170.462C202.461 170.921 202.14 171.576 201.993 172.425C201.95 172.711 201.928 172.949 201.928 173.14C201.928 173.773 202.097 174.262 202.435 174.609C202.773 174.947 203.224 175.116 203.787 175.116C204.307 175.116 204.758 174.995 205.139 174.752C205.529 174.509 205.828 174.163 206.036 173.712H207.31C206.998 174.44 206.517 175.025 205.867 175.467C205.217 175.9 204.463 176.117 203.605 176.117C202.712 176.117 202.002 175.861 201.473 175.35C200.953 174.839 200.693 174.141 200.693 173.257C200.693 172.988 200.719 172.711 200.771 172.425ZM213.308 168.746C214.019 168.746 214.591 168.945 215.024 169.344C215.458 169.734 215.674 170.302 215.674 171.047C215.674 171.324 215.653 171.576 215.609 171.801L214.868 176H213.698L214.413 171.97C214.448 171.788 214.465 171.597 214.465 171.398C214.465 170.869 214.318 170.466 214.023 170.189C213.737 169.912 213.334 169.773 212.814 169.773C212.19 169.773 211.657 169.968 211.215 170.358C210.782 170.748 210.5 171.316 210.37 172.061V172.035L209.668 176H208.485L210.188 166.38H211.371L210.747 169.903C211.042 169.539 211.415 169.257 211.865 169.058C212.325 168.85 212.806 168.746 213.308 168.746ZM221.559 168.746C222.296 168.746 222.885 168.945 223.327 169.344C223.769 169.734 223.99 170.306 223.99 171.06C223.99 171.337 223.968 171.584 223.925 171.801L223.184 176H222.014L222.729 171.97C222.764 171.788 222.781 171.597 222.781 171.398C222.781 170.869 222.634 170.466 222.339 170.189C222.053 169.912 221.65 169.773 221.13 169.773C220.506 169.773 219.973 169.968 219.531 170.358C219.098 170.748 218.816 171.316 218.686 172.061V172.035L217.984 176H216.801L218.062 168.876H219.245L219.063 169.903C219.358 169.53 219.726 169.244 220.168 169.045C220.61 168.846 221.074 168.746 221.559 168.746ZM228.249 176.117C227.651 176.117 227.123 175.996 226.663 175.753C226.213 175.502 225.862 175.155 225.61 174.713C225.359 174.262 225.233 173.742 225.233 173.153C225.233 172.347 225.42 171.61 225.792 170.943C226.165 170.267 226.676 169.734 227.326 169.344C227.985 168.954 228.717 168.759 229.523 168.759C230.121 168.759 230.65 168.885 231.109 169.136C231.577 169.379 231.937 169.725 232.188 170.176C232.448 170.618 232.578 171.138 232.578 171.736C232.578 172.542 232.388 173.279 232.006 173.946C231.625 174.613 231.105 175.142 230.446 175.532C229.788 175.922 229.055 176.117 228.249 176.117ZM228.392 175.116C228.956 175.116 229.463 174.964 229.913 174.661C230.364 174.349 230.715 173.942 230.966 173.439C231.226 172.928 231.356 172.382 231.356 171.801C231.356 171.142 231.166 170.64 230.784 170.293C230.403 169.938 229.926 169.76 229.354 169.76C228.791 169.76 228.288 169.916 227.846 170.228C227.404 170.531 227.062 170.939 226.819 171.45C226.577 171.961 226.455 172.512 226.455 173.101C226.455 173.742 226.637 174.241 227.001 174.596C227.365 174.943 227.829 175.116 228.392 175.116ZM236.318 166.38L234.615 176H233.432L235.135 166.38H236.318ZM239.764 176.117C239.166 176.117 238.637 175.996 238.178 175.753C237.727 175.502 237.376 175.155 237.125 174.713C236.874 174.262 236.748 173.742 236.748 173.153C236.748 172.347 236.934 171.61 237.307 170.943C237.68 170.267 238.191 169.734 238.841 169.344C239.5 168.954 240.232 168.759 241.038 168.759C241.636 168.759 242.165 168.885 242.624 169.136C243.092 169.379 243.452 169.725 243.703 170.176C243.963 170.618 244.093 171.138 244.093 171.736C244.093 172.542 243.902 173.279 243.521 173.946C243.14 174.613 242.62 175.142 241.961 175.532C241.302 175.922 240.57 176.117 239.764 176.117ZM239.907 175.116C240.47 175.116 240.977 174.964 241.428 174.661C241.879 174.349 242.23 173.942 242.481 173.439C242.741 172.928 242.871 172.382 242.871 171.801C242.871 171.142 242.68 170.64 242.299 170.293C241.918 169.938 241.441 169.76 240.869 169.76C240.306 169.76 239.803 169.916 239.361 170.228C238.919 170.531 238.577 170.939 238.334 171.45C238.091 171.961 237.97 172.512 237.97 173.101C237.97 173.742 238.152 174.241 238.516 174.596C238.88 174.943 239.344 175.116 239.907 175.116ZM249.171 168.759C249.787 168.759 250.302 168.893 250.718 169.162C251.134 169.431 251.416 169.769 251.563 170.176L251.797 168.876H252.993L251.706 176.156C251.594 176.806 251.351 177.382 250.978 177.885C250.614 178.396 250.151 178.795 249.587 179.081C249.024 179.367 248.4 179.51 247.715 179.51C246.779 179.51 246.038 179.285 245.492 178.834C244.946 178.392 244.682 177.794 244.699 177.04H245.882C245.934 177.473 246.138 177.82 246.493 178.08C246.857 178.349 247.325 178.483 247.897 178.483C248.547 178.483 249.115 178.279 249.6 177.872C250.086 177.465 250.393 176.893 250.523 176.156L250.783 174.661C250.471 175.077 250.06 175.424 249.548 175.701C249.046 175.978 248.487 176.117 247.871 176.117C247.317 176.117 246.827 176 246.402 175.766C245.978 175.523 245.644 175.181 245.401 174.739C245.167 174.297 245.05 173.786 245.05 173.205C245.05 172.945 245.076 172.681 245.128 172.412C245.258 171.684 245.518 171.047 245.908 170.501C246.307 169.946 246.788 169.517 247.351 169.214C247.923 168.911 248.53 168.759 249.171 168.759ZM251.173 172.425C251.208 172.243 251.225 172.048 251.225 171.84C251.225 171.207 251.035 170.709 250.653 170.345C250.281 169.972 249.804 169.786 249.223 169.786C248.781 169.786 248.357 169.89 247.949 170.098C247.551 170.306 247.208 170.609 246.922 171.008C246.636 171.407 246.446 171.875 246.35 172.412C246.316 172.594 246.298 172.793 246.298 173.01C246.298 173.651 246.485 174.158 246.857 174.531C247.23 174.895 247.707 175.077 248.287 175.077C248.729 175.077 249.15 174.973 249.548 174.765C249.956 174.548 250.302 174.241 250.588 173.842C250.883 173.435 251.078 172.962 251.173 172.425ZM255.799 167.719C255.608 167.719 255.448 167.658 255.318 167.537C255.196 167.407 255.136 167.247 255.136 167.056C255.136 166.796 255.231 166.575 255.422 166.393C255.612 166.202 255.833 166.107 256.085 166.107C256.284 166.107 256.444 166.168 256.566 166.289C256.687 166.41 256.748 166.571 256.748 166.77C256.748 167.03 256.652 167.255 256.462 167.446C256.271 167.628 256.05 167.719 255.799 167.719ZM256.176 168.876L254.915 176H253.732L254.993 168.876H256.176ZM261.286 168.759C261.884 168.759 262.399 168.876 262.833 169.11C263.275 169.335 263.608 169.656 263.834 170.072C264.068 170.479 264.185 170.947 264.185 171.476C264.185 171.658 264.163 171.879 264.12 172.139C264.085 172.364 264.029 172.598 263.951 172.841H258.257C258.239 173.014 258.231 173.14 258.231 173.218C258.231 173.816 258.408 174.284 258.764 174.622C259.128 174.951 259.6 175.116 260.181 175.116C260.692 175.116 261.138 174.999 261.52 174.765C261.91 174.522 262.204 174.202 262.404 173.803H263.678C263.366 174.488 262.885 175.047 262.235 175.48C261.593 175.905 260.848 176.117 259.999 176.117C259.106 176.117 258.387 175.861 257.841 175.35C257.303 174.83 257.035 174.124 257.035 173.231C257.035 172.98 257.061 172.711 257.113 172.425C257.243 171.688 257.507 171.043 257.906 170.488C258.304 169.933 258.794 169.509 259.375 169.214C259.964 168.911 260.601 168.759 261.286 168.759ZM262.924 171.983C262.95 171.81 262.963 171.649 262.963 171.502C262.963 170.947 262.785 170.518 262.43 170.215C262.083 169.912 261.628 169.76 261.065 169.76C260.458 169.76 259.908 169.959 259.414 170.358C258.92 170.748 258.586 171.29 258.413 171.983H262.924ZM267.501 176.117C266.756 176.117 266.145 175.939 265.668 175.584C265.192 175.229 264.953 174.752 264.953 174.154C264.953 174.041 264.958 173.959 264.966 173.907H266.123C266.089 174.28 266.197 174.583 266.448 174.817C266.708 175.051 267.081 175.168 267.566 175.168C268.052 175.168 268.442 175.077 268.736 174.895C269.04 174.704 269.191 174.44 269.191 174.102C269.191 173.816 269.07 173.591 268.827 173.426C268.585 173.261 268.212 173.084 267.709 172.893C267.267 172.728 266.903 172.572 266.617 172.425C266.331 172.278 266.089 172.074 265.889 171.814C265.69 171.545 265.59 171.207 265.59 170.8C265.59 170.401 265.703 170.046 265.928 169.734C266.162 169.422 266.483 169.184 266.89 169.019C267.306 168.846 267.779 168.759 268.307 168.759C269.035 168.759 269.633 168.941 270.101 169.305C270.569 169.669 270.803 170.146 270.803 170.735C270.803 170.848 270.799 170.934 270.79 170.995H269.659L269.672 170.839C269.672 170.492 269.538 170.219 269.269 170.02C269.009 169.812 268.663 169.708 268.229 169.708C267.805 169.708 267.454 169.803 267.176 169.994C266.908 170.185 266.773 170.44 266.773 170.761C266.773 171.064 266.899 171.303 267.15 171.476C267.402 171.649 267.792 171.84 268.32 172.048C268.762 172.221 269.118 172.382 269.386 172.529C269.655 172.668 269.885 172.863 270.075 173.114C270.266 173.365 270.361 173.682 270.361 174.063C270.361 174.479 270.236 174.843 269.984 175.155C269.742 175.467 269.404 175.705 268.97 175.87C268.537 176.035 268.047 176.117 267.501 176.117ZM272.148 176.078C271.949 176.078 271.784 176.017 271.654 175.896C271.533 175.775 271.472 175.614 271.472 175.415C271.472 175.155 271.568 174.934 271.758 174.752C271.949 174.561 272.174 174.466 272.434 174.466C272.634 174.466 272.794 174.527 272.915 174.648C273.037 174.769 273.097 174.93 273.097 175.129C273.097 175.389 273.002 175.614 272.811 175.805C272.621 175.987 272.4 176.078 272.148 176.078Z" fill="white"/>
<defs>
<filter id="filter0_d_14_12" x="0" y="82.3101" width="613" height="127.69" filterUnits="userSpaceOnUse" color-interpolation-filters="sRGB">
<feFlood flood-opacity="0" result="BackgroundImageFix"/>
<feColorMatrix in="SourceAlpha" type="matrix" values="0 0 0 0 0 0 0 0 0 0 0 0 0 0 0 0 0 0 127 0" result="hardAlpha"/>
<feOffset dy="4"/>
<feGaussianBlur stdDeviation="2"/>
<feComposite in2="hardAlpha" operator="out"/>
<feColorMatrix type="matrix" values="0 0 0 0 0 0 0 0 0 0 0 0 0 0 0 0 0 0 0.25 0"/>
<feBlend mode="normal" in2="BackgroundImageFix" result="effect1_dropShadow_14_12"/>
<feBlend mode="normal" in="SourceGraphic" in2="effect1_dropShadow_14_12" result="shape"/>
</filter>
</defs>
</svg>
